<svg id="Layer_1" data-name="Layer 1" xmlns="http://www.w3.org/2000/svg" viewBox="0 0 180 47.97"><defs><style>.cls-1{fill:#253b80;}.cls-2{fill:#179bd7;}</style></defs><title>paypal_colour</title><path class="cls-1" d="M57.26,6.75h-14a2,2,0,0,0-1.92,1.64l-5.66,35.9a1.17,1.17,0,0,0,1.15,1.35h6.68A2,2,0,0,0,45.44,44L47,34.31a1.94,1.94,0,0,1,1.92-1.64h4.43c9.22,0,14.55-4.46,15.94-13.31.63-3.87,0-6.91-1.79-9C65.48,8,61.95,6.75,57.26,6.75Zm1.62,13.11c-.77,5-4.6,5-8.32,5H48.45l1.48-9.38a1.17,1.17,0,0,1,1.15-1h1c2.53,0,4.91,0,6.15,1.44C58.93,16.82,59.16,18.1,58.88,19.86Z" transform="translate(-35.66 -6.75)"/><path class="cls-1" d="M99.11,19.7h-6.7a1.17,1.17,0,0,0-1.15,1L91,22.56l-.47-.68c-1.45-2.11-4.69-2.81-7.92-2.81-7.41,0-13.74,5.61-15,13.48a12.65,12.65,0,0,0,2.5,10.3c2,2.41,5,3.41,8.44,3.41a12.83,12.83,0,0,0,9.28-3.84l-.3,1.86a1.17,1.17,0,0,0,1.15,1.35h6A2,2,0,0,0,96.64,44L100.26,21A1.16,1.16,0,0,0,99.11,19.7Zm-9.35,13a7.47,7.47,0,0,1-7.56,6.4,5.65,5.65,0,0,1-4.5-1.81,5.7,5.7,0,0,1-1.05-4.71,7.5,7.5,0,0,1,7.51-6.45A5.66,5.66,0,0,1,88.63,28,5.8,5.8,0,0,1,89.76,32.75Z" transform="translate(-35.66 -6.75)"/><path class="cls-1" d="M134.82,19.7h-6.74a2,2,0,0,0-1.61.85l-9.29,13.69-3.94-13.15a2,2,0,0,0-1.87-1.39h-6.62a1.17,1.17,0,0,0-1.11,1.54L111.06,43l-7,9.85a1.17,1.17,0,0,0,1,1.84h6.73a1.94,1.94,0,0,0,1.6-.84l22.41-32.35A1.17,1.17,0,0,0,134.82,19.7Z" transform="translate(-35.66 -6.75)"/><path class="cls-2" d="M157.12,6.75h-14a1.94,1.94,0,0,0-1.92,1.64l-5.66,35.9a1.16,1.16,0,0,0,1.15,1.35h7.19a1.36,1.36,0,0,0,1.34-1.15l1.61-10.18a1.94,1.94,0,0,1,1.92-1.64h4.43c9.22,0,14.55-4.46,15.94-13.31.63-3.87,0-6.91-1.79-9C165.34,8,161.81,6.75,157.12,6.75Zm1.62,13.11c-.76,5-4.6,5-8.32,5h-2.11l1.48-9.38a1.16,1.16,0,0,1,1.15-1h1c2.53,0,4.91,0,6.15,1.44C158.8,16.82,159,18.1,158.74,19.86Z" transform="translate(-35.66 -6.75)"/><path class="cls-2" d="M199,19.7h-6.7a1.16,1.16,0,0,0-1.15,1l-.3,1.88-.47-.68c-1.45-2.11-4.69-2.81-7.92-2.81-7.41,0-13.73,5.61-15,13.48a12.66,12.66,0,0,0,2.5,10.3c2,2.41,5,3.41,8.44,3.41a12.83,12.83,0,0,0,9.28-3.84l-.3,1.86a1.17,1.17,0,0,0,1.15,1.35h6A1.94,1.94,0,0,0,196.5,44L200.13,21A1.17,1.17,0,0,0,199,19.7Zm-9.35,13a7.47,7.47,0,0,1-7.56,6.4,5.66,5.66,0,0,1-4.5-1.81,5.71,5.71,0,0,1-1.05-4.71A7.51,7.51,0,0,1,184,26.18,5.66,5.66,0,0,1,188.49,28,5.77,5.77,0,0,1,189.63,32.75Z" transform="translate(-35.66 -6.75)"/><path class="cls-2" d="M206.88,7.73l-5.75,36.56a1.16,1.16,0,0,0,1.15,1.35h5.78A1.94,1.94,0,0,0,210,44l5.67-35.9a1.17,1.17,0,0,0-1.15-1.35H208A1.17,1.17,0,0,0,206.88,7.73Z" transform="translate(-35.66 -6.75)"/></svg>