<svg id="Ebene_1" data-name="Ebene 1" xmlns="http://www.w3.org/2000/svg" viewBox="0 0 199.7 30"><title>vorkasse_black</title><path d="M-4.61,23.2h.08L1.81,4h6L-3.29,33.25H-6.54L-17.42,4h6Z" transform="translate(17.42 -3.25)"/><path d="M24.4,33.25c-8.69,0-14.09-6.65-14.09-15s5.59-15,14.09-15,14.09,6.5,14.09,15S33.09,33.25,24.4,33.25Zm0-24.52c-5.25,0-8.35,4.65-8.35,9.26,0,4.38,2.19,9.79,8.35,9.79s8.35-5.4,8.35-9.79C32.75,13.38,29.65,8.73,24.4,8.73Z" transform="translate(17.42 -3.25)"/><path d="M63.31,32.49H56.59L49.68,21H49.6V32.49H44V4h7.52c5.63,0,9.52,2.49,9.52,8.58,0,3.63-2,7.25-5.82,7.9ZM49.6,17.12h.72c3.06,0,5.21-.91,5.21-4.38S53.3,8.54,50.36,8.54H49.6Z" transform="translate(17.42 -3.25)"/><path d="M82.39,4h6.84L78.43,17.15,89.84,32.49H82.7L73.59,19.69h-.07V32.49H68V4h5.56V16h.07Z" transform="translate(17.42 -3.25)"/><path d="M99.58,26.49l-2.34,6H91.38L102.49,3.25h4.31L117.6,32.49h-5.93l-2.19-6Zm4.8-14.89h-.07L101.17,22h6.76Z" transform="translate(17.42 -3.25)"/><path d="M135.55,10.28a5.13,5.13,0,0,0-4.27-2.34,3.39,3.39,0,0,0-3.48,3.21c0,4.8,11.3,2.8,11.3,12.36,0,5.71-3.55,9.75-9.37,9.75-3.93,0-6.8-2.27-8.77-5.55l3.59-3.51c.76,2.19,2.76,4.16,5.14,4.16s3.67-1.93,3.67-4.12c0-2.95-2.72-3.78-4.95-4.65-3.66-1.51-6.35-3.36-6.35-7.78a8.29,8.29,0,0,1,8.31-8.54,11.69,11.69,0,0,1,7.78,3.17Z" transform="translate(17.42 -3.25)"/><path d="M158.25,10.28A5.13,5.13,0,0,0,154,7.93a3.39,3.39,0,0,0-3.48,3.21c0,4.8,11.3,2.8,11.3,12.36,0,5.71-3.55,9.75-9.37,9.75-3.93,0-6.8-2.27-8.77-5.55l3.59-3.51c.76,2.19,2.76,4.16,5.14,4.16s3.67-1.93,3.67-4.12c0-2.95-2.72-3.78-4.95-4.65-3.66-1.51-6.35-3.36-6.35-7.78a8.29,8.29,0,0,1,8.31-8.54,11.69,11.69,0,0,1,7.78,3.17Z" transform="translate(17.42 -3.25)"/><path d="M173.1,8.84v6.27h8.84v4.84H173.1v7.71h9.18v4.84H167.55V4h14.73V8.84Z" transform="translate(17.42 -3.25)"/></svg>