<svg id="svg4722" xmlns="http://www.w3.org/2000/svg" viewBox="0 0 160 49.6"><defs><style>.cls-1{fill:#ee7f00;}.cls-2{fill:#383a41;}</style></defs><title>sofort_colour</title><g id="layer1"><path id="path66" class="cls-1" d="M57.92,5a14.72,14.72,0,0,0-6.3,1.44A19.72,19.72,0,0,0,44.08,13a28.56,28.56,0,0,0-3.46,6.69c-1.73,4.74-1.71,8.58.06,11.12C41.68,32.26,43.76,34,48,34h0c7.72,0,13.49-5.06,17.14-15,1-2.64,2.24-7.57-.09-10.9-1.4-2-3.81-3-7.15-3Zm46.6,0a14.72,14.72,0,0,0-6.3,1.44A19.71,19.71,0,0,0,90.68,13a28.5,28.5,0,0,0-3.46,6.69c-1.73,4.74-1.71,8.58.06,11.12,1,1.43,3.09,3.14,7.33,3.15h0c7.72,0,13.49-5.06,17.14-15,1-2.64,2.24-7.57-.09-10.9C110.27,6,107.86,5,104.52,5Zm-71.4.4c-2.54,0-5,0-7.22,1.12s-4.16,3.37-5.67,7.86a8.9,8.9,0,0,0-.52,2.52,3.77,3.77,0,0,0,.38,1.88,5.45,5.45,0,0,0,1.57,1.79A7.72,7.72,0,0,0,24,21.78l1.06.3,1.63.48a3.31,3.31,0,0,1,.75.32,1.51,1.51,0,0,1,.6.6,1.34,1.34,0,0,1,.14.58,1.89,1.89,0,0,1-.11.67A1.83,1.83,0,0,1,27,26a8.18,8.18,0,0,1-2.8.33H7.62L5,33.51H22.76a19.34,19.34,0,0,0,7.66-1.25c2.94-1.25,5.75-3.74,6.94-8.73a5.93,5.93,0,0,0-.42-4.6,6.56,6.56,0,0,0-4-2.63L32,16l-1.4-.4a1.87,1.87,0,0,1-1.1-.8,1.56,1.56,0,0,1-.16-1.26,1.85,1.85,0,0,1,.92-1.11,3.73,3.73,0,0,1,1.8-.4H42.35l.21-.32A22.79,22.79,0,0,1,49.23,5.4Zm46.39,0a9.66,9.66,0,0,0-9.63,6.67l-7.8,21.44h8.55l4-11h7.55l2.15-5.9H76.81L78,13.17a1.8,1.8,0,0,1,1.74-1.1h8.91l.21-.33A24,24,0,0,1,95.93,5.4H79.5Zm39.65,0L108.92,33.53h8.69l3.72-9.9c.18.41,2.38,9.9,2.38,9.9h9.14A87.66,87.66,0,0,0,130,23.74a15.42,15.42,0,0,0-1.08-2.21c2.58-1,6.32-3,7.87-7.19,1-2.57.9-4.64-.16-6.16-1.28-1.85-3.89-2.75-8-2.76h-9.46Zm17.83,0a7,7,0,0,1,1.42,1.5,7.31,7.31,0,0,1,1.17,5.18h5.18L137,33.54h7.8l7.81-21.44h10L165,5.42Zm-12.1,5.8h1.44c2.62,0,3.6.77,2.71,3.16A5,5,0,0,1,123.85,18h-1.49l2.52-6.8Zm-69,.14h0c2.67,0,3.28,1.55.94,8h0c-2.41,6.59-4.16,8.25-6.79,8.25h0c-2.56,0-3.46-1.62-1.06-8.19,1.79-4.9,4.11-8,6.92-8Zm46.6,0h0c2.67,0,3.28,1.55.94,8-2.41,6.59-4.16,8.25-6.79,8.25h0c-2.57,0-3.46-1.62-1.06-8.19,1.79-4.9,4.11-8,6.92-8Z" transform="translate(-5 -5)"/><path id="path98" class="cls-2" d="M13.45,36.49a2.12,2.12,0,0,0-1.23.29,2.22,2.22,0,0,0-.69,1.06c-.18.49-.21.83-.08,1s.46.29,1,.29a2.06,2.06,0,0,0,1.24-.3,2.23,2.23,0,0,0,.68-1.06c.18-.5.21-.84.09-1S14,36.49,13.45,36.49Zm4.71,0a2.11,2.11,0,0,0-1.24.29,2.23,2.23,0,0,0-.68,1.06c-.18.49-.21.83-.09,1s.46.29,1,.29a2.09,2.09,0,0,0,1.24-.3,2.22,2.22,0,0,0,.69-1.06c.18-.5.21-.84.08-1S18.72,36.49,18.17,36.49Zm88,3.66a7.55,7.55,0,0,0-1.91.25,6.47,6.47,0,0,0-1.76.75A6.22,6.22,0,0,0,101,42.41a5.72,5.72,0,0,0-1,1.76,3.91,3.91,0,0,0-.29,1.5,2.48,2.48,0,0,0,.28,1.08,2.53,2.53,0,0,0,.66.79,6,6,0,0,0,.87.59l.91.49a4.26,4.26,0,0,1,.76.5,1.49,1.49,0,0,1,.45.6,1.13,1.13,0,0,1,0,.81,2.57,2.57,0,0,1-1.06,1.3,3.11,3.11,0,0,1-.82.35,3.7,3.7,0,0,1-1,.12,4.19,4.19,0,0,1-1.32-.18,4.35,4.35,0,0,1-.89-.39,4.46,4.46,0,0,1-.56-.39.62.62,0,0,0-.36-.18.41.41,0,0,0-.21.06.66.66,0,0,0-.2.2,2.31,2.31,0,0,0-.2.37c-.07.15-.15.34-.23.56a4.07,4.07,0,0,0-.22.76.59.59,0,0,0,.05.4,1.3,1.3,0,0,0,.34.32,3.13,3.13,0,0,0,.66.35,5.79,5.79,0,0,0,1,.29,6.51,6.51,0,0,0,1.3.12,8.13,8.13,0,0,0,2.11-.28,7.31,7.31,0,0,0,1.94-.84,6.79,6.79,0,0,0,1.62-1.39,6.2,6.2,0,0,0,1.11-1.93,3.78,3.78,0,0,0,.27-1.46,2.48,2.48,0,0,0-.29-1.08,2.59,2.59,0,0,0-.67-.79,6.82,6.82,0,0,0-.89-.59l-.92-.49a4.59,4.59,0,0,1-.78-.5,1.43,1.43,0,0,1-.46-.6,1.14,1.14,0,0,1,0-.8,2.21,2.21,0,0,1,.33-.59,2,2,0,0,1,.52-.48,2.6,2.6,0,0,1,.69-.31,3,3,0,0,1,.85-.11,3.29,3.29,0,0,1,1,.15,4,4,0,0,1,.75.32,4.88,4.88,0,0,1,.52.33.62.62,0,0,0,.32.15.36.36,0,0,0,.21-.06.71.71,0,0,0,.18-.2,3.12,3.12,0,0,0,.18-.36c.06-.14.13-.32.21-.53s.12-.34.16-.47a2.17,2.17,0,0,0,.08-.31.8.8,0,0,0,0-.2A.51.51,0,0,0,109,41a1.08,1.08,0,0,0-.34-.27,3.64,3.64,0,0,0-.66-.29,5.36,5.36,0,0,0-.85-.2,5.94,5.94,0,0,0-1-.08Zm44.79,0a10,10,0,0,0-3.18.51,10.12,10.12,0,0,0-2.83,1.46,11.06,11.06,0,0,0-2.31,2.32A12.11,12.11,0,0,0,141,47.53a8.61,8.61,0,0,0-.59,3,4.07,4.07,0,0,0,.59,2.22,3.67,3.67,0,0,0,1.73,1.39,7.31,7.31,0,0,0,2.82.48q.57,0,1.16-.05t1.18-.16c.4-.07.79-.16,1.17-.26s.71-.2,1-.29a1.37,1.37,0,0,0,.6-.38,1.89,1.89,0,0,0,.32-.57l2-5.55a1.29,1.29,0,0,0,.08-.38.57.57,0,0,0-.05-.29.39.39,0,0,0-.17-.18.6.6,0,0,0-.29-.06h-4.71a.36.36,0,0,0-.19.06.78.78,0,0,0-.2.18,1.85,1.85,0,0,0-.2.33,4.85,4.85,0,0,0-.21.5,2.33,2.33,0,0,0-.19.83c0,.16.09.24.21.24h2.64l-1.18,3.24a4.89,4.89,0,0,1-1,.32,4.71,4.71,0,0,1-1,.11,4,4,0,0,1-1.66-.31,2.19,2.19,0,0,1-1-.93,3,3,0,0,1-.34-1.52,6.59,6.59,0,0,1,.45-2.11,8.3,8.3,0,0,1,1-2,7.42,7.42,0,0,1,1.45-1.54,6.52,6.52,0,0,1,1.76-1,6.08,6.08,0,0,1,3.56-.16,6.47,6.47,0,0,1,1.08.42,4.34,4.34,0,0,1,.68.42.71.71,0,0,0,.38.19.36.36,0,0,0,.19-.05.72.72,0,0,0,.19-.19,2.48,2.48,0,0,0,.2-.36,5.27,5.27,0,0,0,.22-.54,4.14,4.14,0,0,0,.23-.81.66.66,0,0,0-.05-.43,1.39,1.39,0,0,0-.38-.36,3.43,3.43,0,0,0-.79-.38,7.09,7.09,0,0,0-1.19-.3A9.14,9.14,0,0,0,151,40.16Zm-88.17.17c-.37,0-.66,0-.87,0a1.05,1.05,0,0,0-.5.15.6.6,0,0,0-.25.34,3.44,3.44,0,0,0-.11.61L59.79,53.63a1.19,1.19,0,0,0,0,.42.37.37,0,0,0,.23.24,1.78,1.78,0,0,0,.55.11q.36,0,1,0c.4,0,.72,0,1,0a2.35,2.35,0,0,0,.61-.11,1,1,0,0,0,.4-.24,2,2,0,0,0,.3-.4l5.33-8.84h0l-1,8.84a1,1,0,0,0,0,.42.36.36,0,0,0,.23.24,1.78,1.78,0,0,0,.55.11q.36,0,1,0c.37,0,.67,0,.92,0a2.77,2.77,0,0,0,.62-.11,1.12,1.12,0,0,0,.43-.24,1.86,1.86,0,0,0,.33-.42l7.62-12.14a6,6,0,0,0,.34-.63.38.38,0,0,0,0-.35.42.42,0,0,0-.33-.15,6.94,6.94,0,0,0-.73,0q-.51,0-.8,0a1.72,1.72,0,0,0-.47.1.65.65,0,0,0-.27.19,2.15,2.15,0,0,0-.2.3L71.12,51.6h0L72.33,41a1,1,0,0,0,0-.35.29.29,0,0,0-.17-.2,1.25,1.25,0,0,0-.44-.09l-.82,0c-.32,0-.59,0-.79,0a2,2,0,0,0-.49.1.76.76,0,0,0-.31.2,2.06,2.06,0,0,0-.24.33L62.68,51.6h0l1.44-10.69a1,1,0,0,0,0-.32.21.21,0,0,0-.14-.17,1.24,1.24,0,0,0-.42-.08l-.8,0Zm33.66,0a6.35,6.35,0,0,0-.69,0,3.09,3.09,0,0,0-.47.09.76.76,0,0,0-.29.14.49.49,0,0,0-.14.19L90,54a.25.25,0,0,0,0,.2.29.29,0,0,0,.18.14,1.76,1.76,0,0,0,.41.09,5.83,5.83,0,0,0,.67,0,6.51,6.51,0,0,0,.7,0,2.56,2.56,0,0,0,.46-.09.8.8,0,0,0,.29-.14.47.47,0,0,0,.14-.2l4.8-13.18a.24.24,0,0,0,0-.19.3.3,0,0,0-.18-.14,1.87,1.87,0,0,0-.4-.09,5.85,5.85,0,0,0-.68,0Zm-86.29,0a6.5,6.5,0,0,0-.7,0,3.1,3.1,0,0,0-.47.09.7.7,0,0,0-.28.14.48.48,0,0,0-.14.19L5.47,49.27A6.61,6.61,0,0,0,5,51.61a2.88,2.88,0,0,0,.5,1.67,2.83,2.83,0,0,0,1.41,1,6.72,6.72,0,0,0,2.24.33,9,9,0,0,0,2.61-.37,7.48,7.48,0,0,0,3.94-2.78,9,9,0,0,0,1.21-2.3l3-8.37a.26.26,0,0,0,0-.19.27.27,0,0,0-.17-.14,1.88,1.88,0,0,0-.39-.09,5.54,5.54,0,0,0-.66,0,6.52,6.52,0,0,0-.7,0,3,3,0,0,0-.47.09.71.71,0,0,0-.28.14.48.48,0,0,0-.14.19l-3.06,8.4a5.58,5.58,0,0,1-.68,1.31,4.48,4.48,0,0,1-.92,1,3.86,3.86,0,0,1-1.11.6,3.94,3.94,0,0,1-1.27.2A2.8,2.8,0,0,1,9,52.07a1.48,1.48,0,0,1-.7-.6,1.85,1.85,0,0,1-.22-1A4.72,4.72,0,0,1,8.4,49l3-8.24a.25.25,0,0,0,0-.19.3.3,0,0,0-.18-.14,1.92,1.92,0,0,0-.4-.09,5.71,5.71,0,0,0-.67,0Zm104.64,0a6.51,6.51,0,0,0-.7,0,2.92,2.92,0,0,0-.47.09.76.76,0,0,0-.28.14.49.49,0,0,0-.14.2l-3.09,8.49a6.57,6.57,0,0,0-.47,2.34,2.87,2.87,0,0,0,.5,1.67,2.84,2.84,0,0,0,1.41,1,6.72,6.72,0,0,0,2.24.33,9,9,0,0,0,2.61-.37,7.49,7.49,0,0,0,3.93-2.78,9.13,9.13,0,0,0,1.21-2.3l3-8.37a.26.26,0,0,0,0-.2.28.28,0,0,0-.17-.14,1.8,1.8,0,0,0-.4-.09,5.57,5.57,0,0,0-.66,0,6.53,6.53,0,0,0-.7,0,2.82,2.82,0,0,0-.47.09.74.74,0,0,0-.28.14.49.49,0,0,0-.14.2l-3.06,8.4a5.64,5.64,0,0,1-.68,1.31,4.52,4.52,0,0,1-.92,1,3.82,3.82,0,0,1-1.11.6,3.92,3.92,0,0,1-1.27.21,2.83,2.83,0,0,1-1.12-.2,1.48,1.48,0,0,1-.7-.6,1.83,1.83,0,0,1-.22-1A4.67,4.67,0,0,1,113,49l3-8.24a.25.25,0,0,0,0-.2.3.3,0,0,0-.18-.14,1.83,1.83,0,0,0-.4-.09,5.72,5.72,0,0,0-.67,0Zm24.25,0c-.26,0-.47,0-.65,0a1.79,1.79,0,0,0-.43.09.85.85,0,0,0-.27.15.48.48,0,0,0-.14.2l-2.39,6.55q-.27.75-.55,1.56t-.52,1.58h0c0-.29-.05-.58-.09-.86s-.06-.58-.1-.88-.08-.6-.12-.89-.09-.6-.14-.91l-.86-5.1a4,4,0,0,0-.14-.71,1.11,1.11,0,0,0-.25-.45.94.94,0,0,0-.42-.23,2.58,2.58,0,0,0-.66-.07h-1.52a1.49,1.49,0,0,0-.82.25,1.47,1.47,0,0,0-.57.76L123.82,54a.34.34,0,0,0,0,.2.26.26,0,0,0,.14.14,1.21,1.21,0,0,0,.36.09,4.8,4.8,0,0,0,.61,0,5.6,5.6,0,0,0,.65,0,2.06,2.06,0,0,0,.43-.09.75.75,0,0,0,.26-.14.54.54,0,0,0,.13-.2l2.66-7.3c.2-.55.39-1.08.56-1.59s.34-1,.5-1.55h0c0,.42,0,.86.08,1.31s.1.87.16,1.26l1.1,6.52a7.73,7.73,0,0,0,.16.88,1.52,1.52,0,0,0,.25.54.81.81,0,0,0,.41.28,2.15,2.15,0,0,0,.63.08h1.21a1.62,1.62,0,0,0,.43-.06,1.39,1.39,0,0,0,.41-.19,1.68,1.68,0,0,0,.35-.32,1.52,1.52,0,0,0,.25-.44l4.57-12.54a.32.32,0,0,0,0-.2.26.26,0,0,0-.13-.15.92.92,0,0,0-.35-.09,5.56,5.56,0,0,0-.6,0Zm-100.7,0a1.21,1.21,0,0,0-.68.21,1.34,1.34,0,0,0-.49.69L32.74,53.46c-.11.32-.12.55,0,.69a.63.63,0,0,0,.52.21h7a.4.4,0,0,0,.2-.06.71.71,0,0,0,.2-.19,2,2,0,0,0,.21-.34c.07-.14.14-.31.22-.52s.13-.38.16-.52a1.29,1.29,0,0,0,0-.34.28.28,0,0,0-.07-.19.22.22,0,0,0-.16-.06h-5l1.43-3.94H41.7a.41.41,0,0,0,.2-.05.68.68,0,0,0,.2-.18,1.72,1.72,0,0,0,.2-.33,4.88,4.88,0,0,0,.22-.52,4.37,4.37,0,0,0,.16-.51,1.11,1.11,0,0,0,0-.33.27.27,0,0,0-.07-.18.21.21,0,0,0-.16-.06H38.28l1.24-3.41h5a.36.36,0,0,0,.2-.06.79.79,0,0,0,.2-.19,2,2,0,0,0,.2-.34,5,5,0,0,0,.21-.51,4.83,4.83,0,0,0,.17-.53,1.38,1.38,0,0,0,0-.34.27.27,0,0,0-.06-.19.21.21,0,0,0-.15-.05h-7Zm11.7,0a1.21,1.21,0,0,0-.68.21,1.33,1.33,0,0,0-.49.69L44.27,54a.27.27,0,0,0,0,.19.27.27,0,0,0,.18.14,1.79,1.79,0,0,0,.4.09,5.81,5.81,0,0,0,.67,0,6.48,6.48,0,0,0,.7,0,2.7,2.7,0,0,0,.46-.09.76.76,0,0,0,.28-.14A.46.46,0,0,0,47.1,54L49,48.65h.89a1.72,1.72,0,0,1,.75.14,1,1,0,0,1,.46.41,2,2,0,0,1,.23.69c0,.27.08.59.1.94l.12,3.12a.65.65,0,0,0,0,.22.28.28,0,0,0,.17.15,1.26,1.26,0,0,0,.39.08l.72,0,.86,0a2.45,2.45,0,0,0,.5-.07.56.56,0,0,0,.26-.14.6.6,0,0,0,.12-.2,1.17,1.17,0,0,0,.05-.3c0-.13,0-.33,0-.6l-.18-2.75a6.77,6.77,0,0,0-.1-.89,3.27,3.27,0,0,0-.2-.7,1.8,1.8,0,0,0-.33-.52,1.83,1.83,0,0,0-.45-.37,6.89,6.89,0,0,0,1.35-.54,5.76,5.76,0,0,0,1.14-.79,5.39,5.39,0,0,0,.9-1,5.92,5.92,0,0,0,.64-1.28,4.15,4.15,0,0,0,.29-1.47,2,2,0,0,0-1.18-1.87,4.35,4.35,0,0,0-1.37-.41l-.63-.05-.9,0H50Zm34.08,0a1.21,1.21,0,0,0-.68.21,1.33,1.33,0,0,0-.49.69L78.53,53.46c-.11.32-.12.55,0,.69a.63.63,0,0,0,.52.21h7a.39.39,0,0,0,.2-.06.67.67,0,0,0,.2-.19,1.73,1.73,0,0,0,.21-.34,5.29,5.29,0,0,0,.22-.52h0a5.14,5.14,0,0,0,.16-.52,1.28,1.28,0,0,0,0-.34.27.27,0,0,0-.07-.19.22.22,0,0,0-.16-.06h-5l1.43-3.94h4.22a.4.4,0,0,0,.2-.05.66.66,0,0,0,.2-.18,1.81,1.81,0,0,0,.2-.33,5.24,5.24,0,0,0,.22-.52,4.64,4.64,0,0,0,.16-.51,1.12,1.12,0,0,0,0-.33.28.28,0,0,0-.07-.18.22.22,0,0,0-.16-.06H84.06l1.24-3.41h5a.38.38,0,0,0,.2-.06.79.79,0,0,0,.2-.19,1.77,1.77,0,0,0,.2-.34,4.65,4.65,0,0,0,.22-.51,4.78,4.78,0,0,0,.17-.53,1.31,1.31,0,0,0,0-.34.27.27,0,0,0-.06-.19.21.21,0,0,0-.15-.05h-7ZM25,40.4a1.21,1.21,0,0,0-.68.21,1.33,1.33,0,0,0-.49.69L19.36,53.46c-.11.32-.12.54,0,.68a.63.63,0,0,0,.52.21h3.71a11,11,0,0,0,1.56-.1,8.66,8.66,0,0,0,1.4-.32,7.64,7.64,0,0,0,1.31-.55,6.25,6.25,0,0,0,1.15-.8,6.09,6.09,0,0,0,1-1.07,5.72,5.72,0,0,0,.7-1.35,3.67,3.67,0,0,0,.25-1.28,2.25,2.25,0,0,0-.23-1,1.83,1.83,0,0,0-.62-.7,2.59,2.59,0,0,0-1-.38,4.79,4.79,0,0,0,1-.45,4.84,4.84,0,0,0,.85-.65,4.74,4.74,0,0,0,.67-.81,4.67,4.67,0,0,0,.48-1,3.46,3.46,0,0,0,.25-1.57,1.78,1.78,0,0,0-.53-1.11,2.8,2.8,0,0,0-1.26-.65,8.38,8.38,0,0,0-2.09-.21Zm1.17,2.12h1.43a3.3,3.3,0,0,1,1,.12,1.11,1.11,0,0,1,.53.34.88.88,0,0,1,.19.55,2.1,2.1,0,0,1-.14.75,3,3,0,0,1-.38.72,2.77,2.77,0,0,1-.58.59,2.69,2.69,0,0,1-.75.4,3.19,3.19,0,0,1-1,.15H24.81Zm25.13,0h1.27a6.65,6.65,0,0,1,.75,0,3.46,3.46,0,0,1,.46.08,1,1,0,0,1,.78.67,1.89,1.89,0,0,1-.11,1.16,3,3,0,0,1-.45.82,2.84,2.84,0,0,1-.68.63,3.29,3.29,0,0,1-.9.41,4,4,0,0,1-1.11.15H49.81Zm-27.2,5.65h1.68a4.11,4.11,0,0,1,1.21.14,1.4,1.4,0,0,1,.65.4,1.07,1.07,0,0,1,.24.64,2.17,2.17,0,0,1-.15.87,2.76,2.76,0,0,1-.47.83,2.93,2.93,0,0,1-.69.6,3.11,3.11,0,0,1-.84.37,3.89,3.89,0,0,1-1,.12h-2Z" transform="translate(-5 -5)"/></g></svg>