<svg id="Layer_1" data-name="Layer 1" xmlns="http://www.w3.org/2000/svg" xmlns:xlink="http://www.w3.org/1999/xlink" viewBox="0 0 12.8 10.98"><defs><style>.cls-1{fill:none;}.cls-2{clip-path:url(#clip-path);}</style><clipPath id="clip-path" transform="translate(-393 -394.82)"><rect class="cls-1" x="393" y="395" width="12.96" height="10.82"/></clipPath></defs><title>ic_heart</title><g class="cls-2"><path d="M405.8,398.53h0a3.74,3.74,0,0,0-3.59-3.71,3.53,3.53,0,0,0-2.8,1.47,3.53,3.53,0,0,0-2.8-1.47,3.74,3.74,0,0,0-3.59,3.71h0v0.06l0,0.15c0.17,5,6.33,7.05,6.33,7.05s6.25-2.05,6.43-7l0-.16v-0.06Zm-0.82.19c-0.14,3.84-4.53,5.79-5.63,6.22-1.1-.43-5.4-2.38-5.54-6.24v-0.16a2.94,2.94,0,0,1,2.8-2.92,2.73,2.73,0,0,1,2.16,1.15,0.8,0.8,0,0,0,1.28,0,2.72,2.72,0,0,1,2.16-1.15,2.94,2.94,0,0,1,2.79,2.92v0.18Zm0,0" transform="translate(-393 -394.82)"/></g></svg>