<?xml version="1.0" encoding="utf-8"?>
<!-- Generator: Adobe Illustrator 20.0.0, SVG Export Plug-In . SVG Version: 6.00 Build 0)  -->
<!DOCTYPE svg PUBLIC "-//W3C//DTD SVG 1.1//EN" "http://www.w3.org/Graphics/SVG/1.1/DTD/svg11.dtd">
<svg version="1.1" id="Ebene_1" xmlns="http://www.w3.org/2000/svg" xmlns:xlink="http://www.w3.org/1999/xlink" x="0px" y="0px"
	 viewBox="0 0 12.4 11.7" enable-background="new 0 0 12.4 11.7" xml:space="preserve">
<g>
	<g>
		<defs>
			<rect id="SVGID_3_" x="-0.1" y="1.1" width="12.6" height="9.4"/>
		</defs>
		<clipPath id="SVGID_2_">
			<use xlink:href="#SVGID_3_"  overflow="visible"/>
		</clipPath>
		<g clip-path="url(#SVGID_2_)">
			<defs>
				<rect id="SVGID_5_" x="1.9" y="1.1" width="8.5" height="9.4"/>
			</defs>
			<clipPath id="SVGID_4_">
				<use xlink:href="#SVGID_5_"  overflow="visible"/>
			</clipPath>
			<g opacity="0.9" clip-path="url(#SVGID_4_)">
				<g>
					<defs>
						<rect id="SVGID_7_" x="3.6" y="1.2" width="3.5" height="4"/>
					</defs>
					<clipPath id="SVGID_6_">
						<use xlink:href="#SVGID_7_"  overflow="visible"/>
					</clipPath>
					<g clip-path="url(#SVGID_6_)">
						<defs>
							<rect id="SVGID_9_" x="3.6" y="1.2" width="3.5" height="4"/>
						</defs>
						<clipPath id="SVGID_8_">
							<use xlink:href="#SVGID_9_"  overflow="visible"/>
						</clipPath>
						<path clip-path="url(#SVGID_8_)" fill="none" stroke="#1E1E1C" stroke-width="0.2501" stroke-miterlimit="10" d="M5.8,1.3
							C5,1.3,4.3,1.9,4.2,2.7L4,4.6c-0.1,0-0.2,0.1-0.2,0.2C3.8,4.9,3.9,5,4,5c0.1,0,0.2-0.1,0.2-0.2c0-0.1,0-0.1-0.1-0.2l0.2-1.9
							C4.4,2,5.1,1.4,5.8,1.5c0.7,0,1.2,0.6,1.1,1.3L6.7,4.7c-0.1,0-0.2,0.1-0.2,0.2c0,0.1,0.1,0.2,0.2,0.2c0.1,0,0.2-0.1,0.2-0.2
							c0-0.1,0-0.2-0.1-0.2L7,2.8C7.1,2,6.6,1.4,5.8,1.3z"/>
					</g>
				</g>
			</g>
			<g opacity="0.9" clip-path="url(#SVGID_4_)">
				<g>
					<defs>
						<rect id="SVGID_11_" x="4.8" y="1.1" width="3.2" height="2.7"/>
					</defs>
					<clipPath id="SVGID_10_">
						<use xlink:href="#SVGID_11_"  overflow="visible"/>
					</clipPath>
					<g clip-path="url(#SVGID_10_)">
						<defs>
							<rect id="SVGID_13_" x="4.8" y="1.1" width="3.2" height="2.7"/>
						</defs>
						<clipPath id="SVGID_12_">
							<use xlink:href="#SVGID_13_"  overflow="visible"/>
						</clipPath>
						<path clip-path="url(#SVGID_12_)" fill="none" stroke="#1E1E1C" stroke-width="0.2501" stroke-miterlimit="10" d="M5.1,3.6
							l0.1-0.9C5.2,2,5.9,1.4,6.6,1.4c0.7,0,1.3,0.6,1.2,1.3l-0.1,1l0.1,0l0.1-1C8,1.9,7.4,1.3,6.6,1.3c-0.8,0-1.5,0.6-1.6,1.4
							L5,3.6L5.1,3.6z"/>
					</g>
				</g>
			</g>
			<g opacity="0.9" clip-path="url(#SVGID_4_)">
				<g>
					<defs>
						<rect id="SVGID_15_" x="1.9" y="3.7" width="6.6" height="6.9"/>
					</defs>
					<clipPath id="SVGID_14_">
						<use xlink:href="#SVGID_15_"  overflow="visible"/>
					</clipPath>
					<g clip-path="url(#SVGID_14_)">
						<defs>
							<rect id="SVGID_17_" x="1.9" y="3.7" width="6.6" height="6.9"/>
						</defs>
						<clipPath id="SVGID_16_">
							<use xlink:href="#SVGID_17_"  overflow="visible"/>
						</clipPath>
						<polygon clip-path="url(#SVGID_16_)" fill="none" stroke="#1E1E1C" stroke-width="0.2501" stroke-miterlimit="10" points="
							2.1,9.9 2.6,3.8 8.4,4 8.1,10.5 						"/>
					</g>
				</g>
			</g>
			<g opacity="0.9" clip-path="url(#SVGID_4_)">
				<g>
					<defs>
						<rect id="SVGID_19_" x="8" y="3.7" width="2.5" height="7"/>
					</defs>
					<clipPath id="SVGID_18_">
						<use xlink:href="#SVGID_19_"  overflow="visible"/>
					</clipPath>
					<g clip-path="url(#SVGID_18_)">
						<defs>
							<rect id="SVGID_21_" x="8" y="3.6" width="2.5" height="7"/>
						</defs>
						<clipPath id="SVGID_20_">
							<use xlink:href="#SVGID_21_"  overflow="visible"/>
						</clipPath>
						<polygon clip-path="url(#SVGID_20_)" fill="none" stroke="#1E1E1C" stroke-width="0.2501" stroke-miterlimit="10" points="
							10.3,10.1 8.1,10.5 8.4,4 9.4,3.8 						"/>
					</g>
				</g>
			</g>
			<g opacity="0.9" clip-path="url(#SVGID_4_)">
				<g>
					<defs>
						<rect id="SVGID_23_" x="8" y="9.7" width="2.3" height="0.9"/>
					</defs>
					<clipPath id="SVGID_22_">
						<use xlink:href="#SVGID_23_"  overflow="visible"/>
					</clipPath>
					<g clip-path="url(#SVGID_22_)">
						<defs>
							<rect id="SVGID_25_" x="8" y="9.7" width="2.3" height="0.9"/>
						</defs>
						<clipPath id="SVGID_24_">
							<use xlink:href="#SVGID_25_"  overflow="visible"/>
						</clipPath>
						<polyline clip-path="url(#SVGID_24_)" fill="none" stroke="#1E1E1C" stroke-width="0.2501" stroke-miterlimit="10" points="
							8.1,10.5 8.7,9.8 10.3,10.1 						"/>
					</g>
				</g>
			</g>
			<g opacity="0.9" clip-path="url(#SVGID_4_)">
				<g>
					<defs>
						<rect id="SVGID_27_" x="2.6" y="3.4" width="6.8" height="0.5"/>
					</defs>
					<clipPath id="SVGID_26_">
						<use xlink:href="#SVGID_27_"  overflow="visible"/>
					</clipPath>
					<g clip-path="url(#SVGID_26_)">
						<defs>
							<rect id="SVGID_29_" x="2.6" y="3.4" width="6.8" height="0.5"/>
						</defs>
						<clipPath id="SVGID_28_">
							<use xlink:href="#SVGID_29_"  overflow="visible"/>
						</clipPath>
						<polyline clip-path="url(#SVGID_28_)" fill="none" stroke="#1E1E1C" stroke-width="0.2501" stroke-miterlimit="10" points="
							2.6,3.8 3.8,3.7 3.5,3.6 9.4,3.8 						"/>
					</g>
				</g>
			</g>
			<g opacity="0.9" clip-path="url(#SVGID_4_)">
				<g>
					<defs>
						<rect id="SVGID_31_" x="8.3" y="4" width="0.6" height="5.8"/>
					</defs>
					<clipPath id="SVGID_30_">
						<use xlink:href="#SVGID_31_"  overflow="visible"/>
					</clipPath>
					<g clip-path="url(#SVGID_30_)">
						<defs>
							<rect id="SVGID_33_" x="8.3" y="4" width="0.6" height="5.8"/>
						</defs>
						<clipPath id="SVGID_32_">
							<use xlink:href="#SVGID_33_"  overflow="visible"/>
						</clipPath>
						
							<line clip-path="url(#SVGID_32_)" fill="none" stroke="#1E1E1C" stroke-width="0.2501" stroke-miterlimit="10" x1="8.7" y1="9.8" x2="8.4" y2="4"/>
					</g>
				</g>
			</g>
			<g opacity="0.9" clip-path="url(#SVGID_4_)">
				<g>
					<defs>
						<rect id="SVGID_35_" x="3.2" y="3.5" width="0.3" height="0.3"/>
					</defs>
					<clipPath id="SVGID_34_">
						<use xlink:href="#SVGID_35_"  overflow="visible"/>
					</clipPath>
					<g clip-path="url(#SVGID_34_)">
						<defs>
							<rect id="SVGID_37_" x="3.2" y="3.5" width="0.3" height="0.3"/>
						</defs>
						<clipPath id="SVGID_36_">
							<use xlink:href="#SVGID_37_"  overflow="visible"/>
						</clipPath>
						
							<line clip-path="url(#SVGID_36_)" fill="none" stroke="#1E1E1C" stroke-width="0.2501" stroke-miterlimit="10" x1="3.3" y1="3.5" x2="3.3" y2="3.7"/>
					</g>
				</g>
			</g>
			<g opacity="0.9" clip-path="url(#SVGID_4_)">
				<g>
					<defs>
						<rect id="SVGID_39_" x="3.6" y="5.4" width="2.7" height="3.4"/>
					</defs>
					<clipPath id="SVGID_38_">
						<use xlink:href="#SVGID_39_"  overflow="visible"/>
					</clipPath>
				</g>
			</g>
		</g>
	</g>
</g>
</svg>
