<?xml version="1.0" encoding="utf-8"?>
<!-- Generator: Adobe Illustrator 20.0.0, SVG Export Plug-In . SVG Version: 6.00 Build 0)  -->
<!DOCTYPE svg PUBLIC "-//W3C//DTD SVG 1.1//EN" "http://www.w3.org/Graphics/SVG/1.1/DTD/svg11.dtd">
<svg version="1.1" id="Ebene_1" xmlns="http://www.w3.org/2000/svg" xmlns:xlink="http://www.w3.org/1999/xlink" x="0px" y="0px"
	 viewBox="0 0 12 12" enable-background="new 0 0 12 12" xml:space="preserve">
<g>
	<path d="M6,0.2C2.8,0.2,0.2,2.8,0.2,6s2.6,5.8,5.8,5.8s5.8-2.6,5.8-5.8S9.2,0.2,6,0.2L6,0.2z M6,11c-2.8,0-5-2.3-5-5
		c0-2.8,2.3-5,5-5c2.8,0,5,2.3,5,5C11,8.8,8.8,11,6,11L6,11z M6,11"/>
	<path d="M9.1,5.6H2.9C2.7,5.6,2.5,5.8,2.5,6c0,0.2,0.2,0.4,0.4,0.4h6.2c0.2,0,0.4-0.2,0.4-0.4C9.5,5.8,9.3,5.6,9.1,5.6L9.1,5.6z
		 M9.1,5.6"/>
	<path d="M9.1,3.3H2.9c-0.2,0-0.4,0.2-0.4,0.4c0,0.2,0.2,0.4,0.4,0.4h6.2c0.2,0,0.4-0.2,0.4-0.4C9.5,3.5,9.3,3.3,9.1,3.3L9.1,3.3z
		 M9.1,3.3"/>
	<path d="M9.1,7.9H2.9c-0.2,0-0.4,0.2-0.4,0.4c0,0.2,0.2,0.4,0.4,0.4h6.2c0.2,0,0.4-0.2,0.4-0.4C9.5,8.1,9.3,7.9,9.1,7.9L9.1,7.9z
		 M9.1,7.9"/>
</g>
</svg>
