<?xml version="1.0" encoding="utf-8"?>
<!-- Generator: Adobe Illustrator 19.2.1, SVG Export Plug-In . SVG Version: 6.00 Build 0)  -->
<svg version="1.1" id="Ebene_1" xmlns="http://www.w3.org/2000/svg" xmlns:xlink="http://www.w3.org/1999/xlink" x="0px" y="0px"
	 viewBox="0 0 15 20" style="enable-background:new 0 0 15 20;" xml:space="preserve">
<style type="text/css">
	.st0{fill:#4F8A10;}
</style>
<title>lock</title>
<path class="st0" d="M14,7h-1V5c0-2.8-2.2-5-5-5H7C4.2,0,2,2.2,2,5v2H1C0.4,7,0,7.4,0,8v11c0,0.6,0.4,1,1,1h13c0.6,0,1-0.4,1-1V8
	C15,7.4,14.6,7,14,7z M4,5c0-1.7,1.3-3,3-3h1c1.7,0,3,1.3,3,3v2H4V5z M13,18H2V9h11V18z"/>
<path class="st0" d="M9.5,12.5c0-1.1-0.9-2-2-2c-1.1,0-2,0.9-2,2c0,0.7,0.4,1.4,1,1.7v1.5c0,0.6,0.4,1,1,1s1-0.4,1-1v-1.5
	C9.1,13.9,9.5,13.2,9.5,12.5z"/>
</svg>
