<?xml version="1.0" encoding="utf-8"?>
<!-- Generator: Adobe Illustrator 20.1.0, SVG Export Plug-In . SVG Version: 6.00 Build 0)  -->
<svg version="1.1" id="Ebene_1" xmlns="http://www.w3.org/2000/svg" xmlns:xlink="http://www.w3.org/1999/xlink" x="0px" y="0px"
	 viewBox="0 0 278 192" style="enable-background:new 0 0 278 192;" xml:space="preserve">
<style type="text/css">
	.st0{fill:#010202;}
	.st1{fill:none;stroke:#000000;stroke-width:1.5754;stroke-miterlimit:10;}
	.st2{fill:#020203;}
	.st3{fill:#020203;stroke:#FFFFFF;stroke-width:1.3865;stroke-miterlimit:10;}
	.st4{fill:#FFFFFF;}
	.st5{fill:none;stroke:#FFFFFF;stroke-width:1.3865;stroke-miterlimit:10;}
</style>
<g>
	<g>
		<g>
			<path class="st0" d="M195.5,55.8c0,0-19.4-23.8-56.1-23.8c-36.7,0-56.1,23.8-56.1,23.8c10.5,12.5,6.4,31.4,5.2,44.2
				c-2.1,22.7,18.4,45.4,50.9,57.9c32.5-12.5,53-35.2,50.9-57.9C189,87.2,185,68.3,195.5,55.8z M187.4,57.2c-6.6,12-4.9,27-3.6,38
				l0,0c0.2,1.9,0.4,3.7,0.6,5.4c0.9,9.4-2.9,19.2-11,28.3c-8,9-19.6,16.8-33.6,22.5l-0.4,0.2l-0.4-0.2c-14-5.7-25.6-13.5-33.6-22.5
				c-8.1-9.1-11.9-18.9-11-28.3c0.2-1.7,0.4-3.5,0.6-5.4c1.3-11,3-26-3.6-38l-0.5-0.8l0.7-0.6c2.9-2.6,6.1-5,9.6-7.2
				c5-3.1,10.4-5.6,16.1-7.4c7-2.2,14.5-3.3,22.1-3.3c7.6,0,15.1,1.1,22.1,3.3c5.7,1.8,11.1,4.3,16.1,7.4c3.5,2.2,6.7,4.6,9.6,7.2
				l0.7,0.6L187.4,57.2z"/>
		</g>
		<path class="st1" d="M139.3,94.9"/>
		<g>
			<path d="M138.3,95.8"/>
			<g>
				<path d="M139.2,100c-0.2,0-0.3,0-0.4-0.1l-5.8-3.6c-0.1-0.1-0.3-0.2-0.3-0.4l-1.2-3c-0.1-0.2-0.1-0.4,0-0.6l1.2-2.9l-4-8.6
					l-9,26.8c-0.1,0.4-0.6,0.7-1,0.6c-0.4-0.1-0.7-0.6-0.6-1l9.5-28.9l0.3-9.3c0-0.1,0-0.2,0.1-0.3l2.8-7.1h-0.4
					c-0.3,0-0.6-0.2-0.7-0.4l-2.5-4.8c-0.1-0.2-0.1-0.3-0.1-0.5l1-6.9c0,0,0-0.1,0-0.1c0-0.1,0-0.1,0.1-0.2c0,0,0-0.1,0.1-0.1
					c0,0,0.1-0.1,0.1-0.1c0,0,0,0,0.1,0c0,0,0.1-0.1,0.1-0.1c0,0,0.1,0,0.1-0.1c0,0,0.1,0,0.1,0c0,0,0.1,0,0.2,0c0,0,0,0,0,0
					c0,0,0.1,0,0.1,0c0,0,0,0,0.1,0c0.1,0,0.2,0.1,0.2,0.1c0,0,0.1,0,0.1,0.1v0c0,0,0.1,0,0.1,0.1l7,8h2.9c0,0,0,0,0,0h2.8l7-8
					c0,0,0.1-0.1,0.1-0.1c0,0,0.1,0,0.1-0.1c0.1,0,0.2-0.1,0.2-0.1c0,0,0,0,0.1,0c0,0,0.1,0,0.1,0l0,0c0.1,0,0.1,0,0.2,0
					c0,0,0.1,0,0.1,0c0,0,0.1,0,0.1,0c0,0,0.1,0,0.1,0.1c0,0,0,0,0,0c0.1,0,0.1,0.1,0.1,0.1c0,0,0,0.1,0.1,0.1c0,0.1,0,0.1,0.1,0.2
					c0,0,0,0.1,0,0.1l1,6.9c0,0.2,0,0.3-0.1,0.5l-2.5,4.8c-0.1,0.3-0.4,0.4-0.7,0.4h-0.4l2.8,7.1c0,0.1,0.1,0.2,0.1,0.3l0.3,9.3
					l10.9,27.5c0.1,0.4-0.1,0.9-0.6,1c-0.4,0.1-0.9-0.2-1-0.6L150,80.8l-4,8.6l1.2,2.9c0.1,0.2,0.1,0.4,0,0.6l-1.2,3
					c-0.1,0.2-0.2,0.3-0.3,0.4l-6,3.6C139.5,99.9,139.4,100,139.2,100z M134.1,95l5.2,3.2l5.3-3.2l1-2.5l-1.2-2.9c0,0,0,0,0-0.1
					c-1.4-3.5-2.2-9.3-2.6-17.1c-1.7,0.2-3.3,0.2-5,0c-0.4,7.9-1.2,13.7-2.6,17.2c0,0,0,0,0,0l-1.2,2.9L134.1,95z M143.4,72.2
					c0.3,6.5,0.9,11.5,1.8,14.9l4.1-8.9l-0.2-7.9C147.3,71.2,145.4,71.9,143.4,72.2z M129.2,78.2l4.1,8.9c0.9-3.4,1.5-8.4,1.8-14.9
					c-2.6-0.5-4.6-1.3-5.7-1.8L129.2,78.2z M136.9,70.8c1.6,0.2,3.2,0.2,4.8,0c-0.2-5.6-0.1-10.6,0-12.7h-2.4c0,0,0,0,0,0h-2.3
					C137,60.2,137.1,65.2,136.9,70.8z M143.3,57.7c0,1.2-0.2,6.7,0,12.9c1.9-0.4,3.7-1,5.5-1.9l-3-7.5c0,0,0,0,0-0.1l0,0
					c0-0.1,0-0.1,0-0.2c0,0,0,0,0-0.1c0,0,0-0.1,0-0.1c0,0,0-0.1,0-0.1l2.2-8.3L143.3,57.7z M129.7,68.7c0.9,0.5,2.9,1.4,5.5,1.9
					c0.2-6.2,0.1-11.7,0-12.9l-4.7-5.4l2.2,8.3c0,0,0,0.1,0,0.1c0,0,0,0.1,0,0.1c0,0,0,0,0,0.1c0,0.1,0,0.2-0.1,0.2L129.7,68.7z
					 M147.7,60L147.7,60l2.2-4.1l-0.4-2.7L147.7,60z M130.8,60L130.8,60l-1.7-6.8l-0.4,2.7L130.8,60z"/>
			</g>
		</g>
	</g>
	<g>
		<g>
			<g>
				<path class="st2" d="M34,126.9c18.9,6.6,37.9,7.8,56.8,6.6c-0.7-11-1.3-22.1-2-33.1c-18.3,1-36.5-0.4-54.8-6.7
					c4.6,6.9,9.2,13.5,13.8,19.8C43.2,118.2,38.6,122.7,34,126.9z"/>
				<path class="st2" d="M243.3,126.9c-18.3-6.3-36.5-7.7-54.8-6.7c0-11.1,0-22.2,0-33.2c18.3-1,36.5,0.4,54.8,6.7
					c-4.6,3.7-9.2,7.7-13.8,12C234.1,112.5,238.7,119.5,243.3,126.9z"/>
				<path class="st3" d="M211.6,131.4c-50.4-4-100.9,18.5-151.3,12.5c0-11.1,0-22.2,0-33.2c50.4,5.9,100.9-16.5,151.3-12.5
					C211.6,109.2,211.6,120.3,211.6,131.4z"/>
			</g>
			<g>
				<path class="st4" d="M71.3,123.8c0,3.8,0,7.6,0,11.4c0,0.3-0.1,0.5-0.3,0.7c-0.2,0.1-0.4,0.2-0.7,0.2c-0.3,0-0.5-0.1-0.7-0.2
					c-0.2-0.1-0.2-0.4-0.2-0.7c0-4.6,0-9.2,0-13.8c0-0.4,0.1-0.7,0.3-0.9c0.2-0.2,0.5-0.2,0.9-0.2c0.4,0,0.7,0.1,0.9,0.3
					c0.2,0.1,0.3,0.4,0.5,0.7c1.7,4.2,3.5,8.4,5.2,12.6c1.7-4.1,3.5-8.3,5.2-12.5c0.1-0.3,0.3-0.5,0.5-0.6c0.2-0.1,0.5-0.2,0.9-0.2
					c0.4,0,0.7,0.1,0.9,0.2c0.2,0.2,0.3,0.5,0.3,0.9c0,4.6,0,9.2,0,13.8c0,0.3-0.1,0.6-0.2,0.7c-0.2,0.1-0.4,0.2-0.7,0.2
					c-0.3,0-0.5,0-0.7-0.2c-0.2-0.1-0.3-0.3-0.3-0.7c0-3.8,0-7.6,0-11.4c-1.6,3.8-3.2,7.6-4.8,11.4c-0.1,0.2-0.2,0.4-0.4,0.5
					c-0.2,0.1-0.4,0.2-0.7,0.2c-0.3,0-0.6-0.1-0.7-0.2c-0.2-0.2-0.3-0.3-0.4-0.5C74.5,131.5,72.9,127.6,71.3,123.8z"/>
				<path class="st4" d="M90.7,128.6c0,1.8,0,3.6,0,5.3c2.6-0.2,5.3-0.4,7.9-0.6c0.3,0,0.5,0,0.6,0.1c0.1,0.1,0.2,0.3,0.2,0.6
					c0,0.3-0.1,0.5-0.2,0.7c-0.1,0.2-0.3,0.3-0.6,0.3c-2.9,0.3-5.9,0.5-8.8,0.7c-0.3,0-0.6,0-0.7-0.2c-0.2-0.1-0.3-0.4-0.3-0.7
					c0-4.5,0-9,0-13.6c0-0.3,0.1-0.6,0.3-0.8c0.2-0.2,0.4-0.2,0.7-0.3c2.9-0.2,5.9-0.4,8.8-0.7c0.3,0,0.5,0,0.6,0.1
					c0.1,0.1,0.2,0.3,0.2,0.6c0,0.3-0.1,0.5-0.2,0.7c-0.1,0.2-0.3,0.3-0.6,0.3c-2.6,0.3-5.3,0.5-7.9,0.6c0,1.7,0,3.3,0,5
					c2.5-0.2,5-0.4,7.5-0.6c0.3,0,0.5,0,0.6,0.2c0.1,0.1,0.2,0.3,0.2,0.6c0,0.3-0.1,0.5-0.2,0.7c-0.1,0.2-0.3,0.3-0.6,0.3
					C95.7,128.2,93.2,128.4,90.7,128.6z"/>
				<path class="st4" d="M102.2,119.9c0-0.3,0.1-0.6,0.3-0.7c0.2-0.2,0.4-0.2,0.7-0.3c0.3,0,0.6,0,0.7,0.1c0.2,0.1,0.3,0.3,0.3,0.7
					c0,4.7,0,9.3,0,14c0,0.3-0.1,0.6-0.3,0.7c-0.2,0.2-0.4,0.2-0.7,0.3c-0.3,0-0.6,0-0.7-0.1c-0.2-0.1-0.3-0.3-0.3-0.7
					C102.2,129.2,102.2,124.5,102.2,119.9z"/>
				<path class="st4" d="M109.8,121.2c0,3.9,0,7.8,0,11.7c0,0.3-0.1,0.6-0.3,0.7c-0.2,0.1-0.4,0.2-0.7,0.3c-0.3,0-0.5,0-0.7-0.1
					c-0.2-0.1-0.3-0.3-0.3-0.6c0-4.7,0-9.3,0-14c0-0.4,0.1-0.6,0.3-0.8c0.2-0.2,0.5-0.3,0.9-0.3c0.4,0,0.6,0,0.8,0.1
					c0.2,0.1,0.4,0.3,0.5,0.5c2.6,3.6,5.3,7.1,7.9,10.6c0-3.9,0-7.8,0-11.8c0-0.3,0.1-0.6,0.3-0.7c0.2-0.2,0.4-0.3,0.7-0.3
					c0.3,0,0.5,0,0.7,0.1c0.2,0.1,0.3,0.3,0.3,0.6c0,4.7,0,9.3,0,14c0,0.4-0.1,0.6-0.3,0.8c-0.2,0.2-0.5,0.3-0.9,0.3
					c-0.4,0.1-0.6,0-0.8-0.1c-0.2-0.1-0.4-0.3-0.5-0.5C115.1,128.3,112.4,124.8,109.8,121.2z"/>
				<path class="st4" d="M135.7,129.1c-0.1,0.2-0.2,0.4-0.3,0.5c-0.2,0.1-0.4,0.2-0.7,0.3c-0.3,0.1-0.6,0-0.7,0
					c-0.2-0.1-0.3-0.2-0.3-0.4c-1.8-4.2-3.5-8.4-5.3-12.6c-0.1-0.2-0.1-0.3-0.2-0.4c0-0.1-0.1-0.2-0.1-0.4c0-0.3,0.1-0.5,0.4-0.7
					c0.2-0.2,0.5-0.3,0.8-0.4c0.4-0.1,0.6,0.1,0.8,0.4c1.6,3.9,3.1,7.8,4.7,11.7c1.6-4.5,3.2-8.9,4.8-13.4c0.1-0.2,0.2-0.3,0.3-0.4
					c0.1-0.1,0.2-0.2,0.5-0.2c0.3,0,0.5,0,0.8,0.1c0.2,0.1,0.4,0.3,0.4,0.5c0,0.1,0,0.2-0.1,0.4c0,0.1-0.1,0.3-0.2,0.4
					C139.3,119.4,137.5,124.3,135.7,129.1z"/>
				<path class="st4" d="M145.7,120.8c0,1.8,0,3.6,0,5.3c2.6-0.5,5.3-0.9,7.9-1.3c0.3,0,0.5,0,0.6,0.1c0.1,0.1,0.2,0.3,0.2,0.6
					c0,0.3-0.1,0.5-0.2,0.7c-0.1,0.2-0.3,0.3-0.6,0.3c-2.9,0.5-5.9,1-8.8,1.5c-0.3,0.1-0.6,0-0.7-0.1c-0.2-0.1-0.3-0.3-0.3-0.7
					c0-4.5,0-9,0-13.6c0-0.3,0.1-0.6,0.3-0.8c0.2-0.2,0.4-0.3,0.7-0.4c2.9-0.5,5.9-1,8.8-1.5c0.3,0,0.5,0,0.6,0.1
					c0.1,0.1,0.2,0.3,0.2,0.6c0,0.3-0.1,0.5-0.2,0.7c-0.1,0.2-0.3,0.3-0.6,0.3c-2.6,0.4-5.3,0.9-7.9,1.3c0,1.7,0,3.3,0,5
					c2.5-0.4,5-0.8,7.5-1.3c0.3,0,0.5,0,0.6,0.1c0.1,0.1,0.2,0.3,0.2,0.6c0,0.3-0.1,0.5-0.2,0.7c-0.1,0.2-0.3,0.3-0.6,0.3
					C150.7,119.9,148.2,120.4,145.7,120.8z"/>
				<path class="st4" d="M168.2,123c0.1,0.2,0.1,0.3,0.2,0.4c0,0.1,0,0.2,0,0.2c0,0.3-0.1,0.5-0.3,0.7c-0.2,0.2-0.5,0.3-0.8,0.3
					c-0.2,0-0.4,0-0.5-0.1c-0.1-0.1-0.3-0.3-0.4-0.5c-1.1-1.9-2.1-3.7-3.2-5.6c-0.1,0-0.2,0.1-0.4,0.1c-0.1,0-0.3,0-0.4,0.1
					c-1.1,0.2-2.2,0.3-3.3,0.5c0,1.9,0,3.9,0,5.8c0,0.3-0.1,0.6-0.3,0.8c-0.2,0.2-0.4,0.3-0.7,0.3c-0.3,0-0.6,0-0.7-0.1
					c-0.2-0.1-0.2-0.3-0.2-0.7c0-4.6,0-9.2,0-13.8c0-0.3,0.1-0.6,0.3-0.8c0.2-0.2,0.4-0.3,0.7-0.3c1.3-0.2,2.6-0.4,4-0.6
					c2.1-0.3,3.6-0.1,4.5,0.5c1,0.6,1.4,1.7,1.4,3.2c0,0.3,0,0.7-0.1,1.1c-0.1,0.4-0.2,0.8-0.4,1.2c-0.2,0.4-0.5,0.8-0.9,1.1
					c-0.4,0.4-0.9,0.7-1.5,1C166.2,119.5,167.2,121.2,168.2,123z M159.1,111.8c0,1.8,0,3.7,0,5.5c1-0.1,1.9-0.3,2.9-0.4
					c0.8-0.1,1.4-0.3,2-0.5c0.5-0.2,0.9-0.4,1.2-0.7c0.3-0.3,0.5-0.6,0.7-0.9c0.1-0.4,0.2-0.8,0.2-1.2c0-0.4-0.1-0.8-0.2-1.1
					c-0.1-0.3-0.3-0.6-0.7-0.8c-0.3-0.2-0.7-0.3-1.2-0.4c-0.5-0.1-1.1,0-1.9,0.1C161.1,111.5,160.1,111.7,159.1,111.8z"/>
				<path class="st4" d="M173.1,116.7c0,1.8,0,3.6,0,5.3c2.6-0.3,5.3-0.6,7.9-0.8c0.3,0,0.5,0,0.6,0.2c0.1,0.1,0.2,0.3,0.2,0.6
					c0,0.3-0.1,0.5-0.2,0.7c-0.1,0.2-0.3,0.3-0.6,0.3c-2.9,0.3-5.9,0.6-8.8,0.9c-0.3,0-0.6,0-0.7-0.1c-0.2-0.1-0.3-0.4-0.3-0.7
					c0-4.5,0-9,0-13.6c0-0.3,0.1-0.6,0.3-0.8c0.2-0.2,0.4-0.3,0.7-0.3c2.9-0.4,5.9-0.7,8.8-0.9c0.3,0,0.5,0,0.6,0.2
					c0.1,0.1,0.2,0.3,0.2,0.6c0,0.3-0.1,0.5-0.2,0.7c-0.1,0.2-0.3,0.3-0.6,0.3c-2.6,0.2-5.3,0.5-7.9,0.8c0,1.7,0,3.3,0,5
					c2.5-0.3,5-0.6,7.5-0.8c0.3,0,0.5,0,0.6,0.2c0.1,0.1,0.2,0.3,0.2,0.6c0,0.3-0.1,0.5-0.2,0.7c-0.1,0.2-0.3,0.3-0.6,0.3
					C178.1,116.1,175.6,116.4,173.1,116.7z"/>
				<path class="st4" d="M184.6,107.9c0-0.3,0.1-0.6,0.3-0.7c0.2-0.1,0.4-0.2,0.7-0.3c0.3,0,0.6,0,0.7,0.2c0.2,0.1,0.3,0.4,0.3,0.7
					c0,4.7,0,9.3,0,14c0,0.3-0.1,0.6-0.3,0.7c-0.2,0.1-0.4,0.2-0.7,0.3c-0.3,0-0.6,0-0.7-0.2c-0.2-0.1-0.3-0.4-0.3-0.7
					C184.6,117.2,184.6,112.5,184.6,107.9z"/>
				<path class="st4" d="M192.2,109.7c0,3.9,0,7.8,0,11.7c0,0.3-0.1,0.6-0.3,0.7c-0.2,0.1-0.4,0.2-0.7,0.2c-0.3,0-0.5,0-0.7-0.2
					c-0.2-0.1-0.3-0.3-0.3-0.7c0-4.7,0-9.3,0-14c0-0.4,0.1-0.6,0.3-0.8c0.2-0.2,0.5-0.2,0.9-0.2c0.4,0,0.6,0.1,0.8,0.2
					c0.2,0.1,0.4,0.3,0.5,0.6c2.6,3.8,5.3,7.7,7.9,11.7c0-3.9,0-7.8,0-11.8c0-0.3,0.1-0.6,0.3-0.7c0.2-0.1,0.4-0.2,0.7-0.2
					c0.3,0,0.5,0.1,0.7,0.2c0.2,0.1,0.3,0.4,0.3,0.7c0,4.7,0,9.3,0,14c0,0.4-0.1,0.6-0.3,0.7c-0.2,0.1-0.5,0.2-0.9,0.2
					c-0.4,0-0.6-0.1-0.8-0.2c-0.2-0.2-0.4-0.4-0.5-0.6C197.5,117.4,194.8,113.6,192.2,109.7z"/>
			</g>
		</g>
	</g>
	<path class="st5" d="M212,98.2c0,0-23.2-2.4-22.6-12.7"/>
	<path class="st5" d="M87.7,99.6c0.8,10.8-28,11-28,11"/>
</g>
<path class="st5" d="M190,98.2c0,0-0.6-8.1-0.6-12.7"/>
<path class="st3" d="M89.2,111.3c0,0-1.8-6.7-1.5-14.1"/>
</svg>
