<?xml version="1.0" encoding="utf-8"?>
<!-- Generator: Adobe Illustrator 21.0.2, SVG Export Plug-In . SVG Version: 6.00 Build 0)  -->
<svg version="1.1" id="Ebene_1" xmlns="http://www.w3.org/2000/svg" xmlns:xlink="http://www.w3.org/1999/xlink" x="0px" y="0px"
	 viewBox="0 0 278 192" style="enable-background:new 0 0 278 192;" xml:space="preserve">
<g>
	<path d="M71.3,116.2c0,3.8,0,7.6,0,11.4c0,0.3-0.1,0.6-0.3,0.7c-0.2,0.1-0.4,0.2-0.7,0.2c-0.3,0-0.5-0.1-0.7-0.2
		c-0.2-0.1-0.2-0.4-0.2-0.7c0-4.6,0-9.2,0-13.8c0-0.4,0.1-0.7,0.3-0.9c0.2-0.2,0.5-0.2,0.9-0.2c0.4,0,0.7,0.1,0.9,0.2
		c0.2,0.1,0.3,0.4,0.5,0.6c1.7,4.2,3.5,8.4,5.2,12.5c1.7-4.2,3.5-8.3,5.2-12.5c0.1-0.3,0.3-0.5,0.5-0.6c0.2-0.1,0.5-0.2,0.9-0.2
		c0.4,0,0.7,0.1,0.9,0.2c0.2,0.2,0.3,0.5,0.3,0.9c0,4.6,0,9.2,0,13.8c0,0.3-0.1,0.6-0.2,0.7c-0.2,0.1-0.4,0.2-0.7,0.2
		c-0.3,0-0.5,0-0.7-0.2c-0.2-0.1-0.3-0.3-0.3-0.7c0-3.8,0-7.6,0-11.4c-1.6,3.8-3.2,7.7-4.8,11.5c-0.1,0.2-0.2,0.4-0.4,0.5
		c-0.2,0.1-0.4,0.2-0.7,0.2c-0.3,0-0.6-0.1-0.7-0.2c-0.2-0.1-0.3-0.3-0.4-0.5C74.5,123.9,72.9,120,71.3,116.2z"/>
	<path d="M90.7,120.9c0,1.8,0,3.6,0,5.3c2.6-0.2,5.3-0.4,7.9-0.7c0.3,0,0.5,0,0.6,0.1c0.1,0.1,0.2,0.3,0.2,0.6
		c0,0.3-0.1,0.5-0.2,0.7c-0.1,0.2-0.3,0.3-0.6,0.3c-2.9,0.3-5.9,0.5-8.8,0.7c-0.3,0-0.6,0-0.7-0.2c-0.2-0.1-0.3-0.4-0.3-0.7
		c0-4.5,0-9,0-13.6c0-0.3,0.1-0.6,0.3-0.8c0.2-0.2,0.4-0.3,0.7-0.3c2.9-0.2,5.9-0.4,8.8-0.7c0.3,0,0.5,0,0.6,0.1
		c0.1,0.1,0.2,0.3,0.2,0.6c0,0.3-0.1,0.5-0.2,0.7c-0.1,0.2-0.3,0.3-0.6,0.3c-2.6,0.3-5.3,0.5-7.9,0.7c0,1.7,0,3.3,0,5
		c2.5-0.2,5-0.4,7.5-0.6c0.3,0,0.5,0,0.6,0.1c0.1,0.1,0.2,0.3,0.2,0.6c0,0.3-0.1,0.5-0.2,0.7c-0.1,0.2-0.3,0.3-0.6,0.3
		C95.7,120.5,93.2,120.7,90.7,120.9z"/>
	<path d="M102.2,112.2c0-0.3,0.1-0.6,0.3-0.7c0.2-0.2,0.4-0.2,0.7-0.3c0.3,0,0.6,0,0.7,0.1c0.2,0.1,0.3,0.3,0.3,0.7
		c0,4.7,0,9.3,0,14c0,0.3-0.1,0.6-0.3,0.7c-0.2,0.2-0.4,0.3-0.7,0.3c-0.3,0-0.6,0-0.7-0.1c-0.2-0.1-0.3-0.3-0.3-0.7
		C102.2,121.5,102.2,116.8,102.2,112.2z"/>
	<path d="M109.8,113.5c0,3.9,0,7.8,0,11.7c0,0.3-0.1,0.6-0.3,0.7c-0.2,0.1-0.4,0.2-0.7,0.3c-0.3,0-0.5,0-0.7-0.1
		c-0.2-0.1-0.3-0.3-0.3-0.6c0-4.7,0-9.3,0-14c0-0.4,0.1-0.6,0.3-0.8c0.2-0.2,0.5-0.3,0.9-0.3c0.4,0,0.6,0,0.8,0.1
		c0.2,0.1,0.4,0.3,0.5,0.5c2.6,3.6,5.3,7.1,7.9,10.6c0-3.9,0-7.8,0-11.8c0-0.3,0.1-0.6,0.3-0.7c0.2-0.2,0.4-0.3,0.7-0.3
		c0.3,0,0.5,0,0.7,0.1c0.2,0.1,0.3,0.3,0.3,0.6c0,4.7,0,9.3,0,14c0,0.4-0.1,0.6-0.3,0.8c-0.2,0.2-0.5,0.3-0.9,0.3
		c-0.4,0.1-0.6,0-0.8-0.1c-0.2-0.1-0.4-0.3-0.5-0.5C115.1,120.6,112.4,117,109.8,113.5z"/>
	<path d="M135.7,121.3c-0.1,0.2-0.2,0.4-0.3,0.5c-0.2,0.1-0.4,0.2-0.7,0.3c-0.3,0.1-0.6,0-0.7,0c-0.2-0.1-0.3-0.2-0.3-0.4
		c-1.8-4.2-3.5-8.4-5.3-12.6c-0.1-0.2-0.1-0.3-0.2-0.4c0-0.1-0.1-0.2-0.1-0.4c0-0.3,0.1-0.5,0.4-0.7c0.2-0.2,0.5-0.3,0.8-0.4
		c0.4-0.1,0.6,0.1,0.8,0.4c1.6,3.9,3.1,7.8,4.7,11.7c1.6-4.5,3.2-8.9,4.8-13.4c0.1-0.2,0.2-0.3,0.3-0.4c0.1-0.1,0.2-0.2,0.5-0.2
		c0.3,0,0.5,0,0.8,0.1c0.2,0.1,0.4,0.3,0.4,0.5c0,0.1,0,0.2-0.1,0.4c0,0.1-0.1,0.3-0.2,0.4C139.3,111.6,137.5,116.4,135.7,121.3z"/>
	<path d="M145.7,113c0,1.8,0,3.6,0,5.3c2.6-0.5,5.3-0.9,7.9-1.3c0.3,0,0.5,0,0.6,0.1c0.1,0.1,0.2,0.3,0.2,0.6c0,0.3-0.1,0.5-0.2,0.7
		c-0.1,0.2-0.3,0.3-0.6,0.3c-2.9,0.5-5.9,1-8.8,1.5c-0.3,0.1-0.6,0-0.7-0.1c-0.2-0.1-0.3-0.3-0.3-0.7c0-4.5,0-9,0-13.6
		c0-0.3,0.1-0.6,0.3-0.8c0.2-0.2,0.4-0.3,0.7-0.4c2.9-0.5,5.9-1,8.8-1.5c0.3,0,0.5,0,0.6,0.1c0.1,0.1,0.2,0.3,0.2,0.6
		c0,0.3-0.1,0.5-0.2,0.7c-0.1,0.2-0.3,0.3-0.6,0.3c-2.6,0.4-5.3,0.9-7.9,1.3c0,1.7,0,3.3,0,5c2.5-0.4,5-0.9,7.5-1.3
		c0.3,0,0.5,0,0.6,0.1c0.1,0.1,0.2,0.3,0.2,0.6c0,0.3-0.1,0.5-0.2,0.7c-0.1,0.2-0.3,0.3-0.6,0.3C150.7,112.1,148.2,112.5,145.7,113z
		"/>
	<path d="M168.2,115.1c0.1,0.2,0.1,0.3,0.2,0.4c0,0.1,0,0.2,0,0.2c0,0.3-0.1,0.5-0.3,0.7c-0.2,0.2-0.5,0.3-0.8,0.3
		c-0.2,0-0.4,0-0.5-0.1c-0.1-0.1-0.3-0.3-0.4-0.5c-1.1-1.9-2.1-3.7-3.2-5.6c-0.1,0-0.2,0.1-0.4,0.1c-0.1,0-0.3,0-0.4,0.1
		c-1.1,0.2-2.2,0.3-3.3,0.5c0,1.9,0,3.9,0,5.8c0,0.3-0.1,0.6-0.3,0.8c-0.2,0.2-0.4,0.3-0.7,0.3c-0.3,0-0.6,0-0.7-0.1
		c-0.2-0.1-0.2-0.3-0.2-0.7c0-4.6,0-9.2,0-13.8c0-0.3,0.1-0.6,0.3-0.8c0.2-0.2,0.4-0.3,0.7-0.3c1.3-0.2,2.6-0.4,4-0.6
		c2.1-0.3,3.6-0.1,4.5,0.5c1,0.6,1.4,1.7,1.4,3.1c0,0.3,0,0.7-0.1,1.1c-0.1,0.4-0.2,0.8-0.4,1.2c-0.2,0.4-0.5,0.8-0.9,1.1
		c-0.4,0.4-0.9,0.7-1.5,1C166.2,111.6,167.2,113.4,168.2,115.1z M159.1,104c0,1.8,0,3.7,0,5.5c1-0.2,1.9-0.3,2.9-0.4
		c0.8-0.1,1.4-0.3,2-0.5c0.5-0.2,0.9-0.4,1.2-0.7c0.3-0.3,0.5-0.6,0.7-1c0.1-0.4,0.2-0.8,0.2-1.2c0-0.4-0.1-0.8-0.2-1.1
		c-0.1-0.3-0.3-0.6-0.7-0.8c-0.3-0.2-0.7-0.3-1.2-0.4c-0.5-0.1-1.1,0-1.9,0.1C161.1,103.7,160.1,103.8,159.1,104z"/>
	<path d="M173.1,108.8c0,1.8,0,3.6,0,5.3c2.6-0.3,5.3-0.6,7.9-0.8c0.3,0,0.5,0,0.6,0.2c0.1,0.1,0.2,0.3,0.2,0.6
		c0,0.3-0.1,0.5-0.2,0.7c-0.1,0.2-0.3,0.3-0.6,0.3c-2.9,0.3-5.9,0.6-8.8,1c-0.3,0-0.6,0-0.7-0.1c-0.2-0.1-0.3-0.4-0.3-0.7
		c0-4.5,0-9,0-13.6c0-0.3,0.1-0.6,0.3-0.8c0.2-0.2,0.4-0.3,0.7-0.3c2.9-0.4,5.9-0.7,8.8-1c0.3,0,0.5,0,0.6,0.2
		c0.1,0.1,0.2,0.3,0.2,0.6c0,0.3-0.1,0.5-0.2,0.7c-0.1,0.2-0.3,0.3-0.6,0.3c-2.6,0.2-5.3,0.5-7.9,0.8c0,1.7,0,3.3,0,5
		c2.5-0.3,5-0.6,7.5-0.8c0.3,0,0.5,0,0.6,0.2c0.1,0.1,0.2,0.3,0.2,0.6c0,0.3-0.1,0.5-0.2,0.7c-0.1,0.2-0.3,0.3-0.6,0.3
		C178.1,108.2,175.6,108.5,173.1,108.8z"/>
	<path d="M184.6,99.9c0-0.3,0.1-0.6,0.3-0.7c0.2-0.1,0.4-0.2,0.7-0.3c0.3,0,0.6,0,0.7,0.1c0.2,0.1,0.3,0.4,0.3,0.7c0,4.7,0,9.3,0,14
		c0,0.3-0.1,0.6-0.3,0.7c-0.2,0.1-0.4,0.2-0.7,0.3c-0.3,0-0.6,0-0.7-0.1c-0.2-0.1-0.3-0.4-0.3-0.7
		C184.6,109.3,184.6,104.6,184.6,99.9z"/>
	<path d="M192.2,101.8c0,3.9,0,7.8,0,11.7c0,0.3-0.1,0.6-0.3,0.7c-0.2,0.1-0.4,0.2-0.7,0.2c-0.3,0-0.5,0-0.7-0.2
		c-0.2-0.1-0.3-0.3-0.3-0.7c0-4.7,0-9.3,0-14c0-0.4,0.1-0.6,0.3-0.8c0.2-0.2,0.5-0.2,0.9-0.3c0.4,0,0.6,0,0.8,0.2
		c0.2,0.1,0.4,0.3,0.5,0.6c2.6,3.8,5.3,7.7,7.9,11.6c0-3.9,0-7.8,0-11.8c0-0.3,0.1-0.6,0.3-0.7c0.2-0.1,0.4-0.2,0.7-0.2
		c0.3,0,0.5,0.1,0.7,0.2c0.2,0.1,0.3,0.4,0.3,0.7c0,4.7,0,9.3,0,14c0,0.4-0.1,0.6-0.3,0.7c-0.2,0.1-0.5,0.2-0.9,0.2
		c-0.4,0-0.6-0.1-0.8-0.2c-0.2-0.2-0.4-0.4-0.5-0.6C197.5,109.4,194.8,105.6,192.2,101.8z"/>
	<g>
		<path d="M85.8,159.6c1.2,0,2.1,0.2,2.6,0.6c0.6,0.4,0.8,1,0.8,1.8c0,0.5-0.1,0.8-0.3,1.2c-0.2,0.3-0.5,0.6-1,0.8
			c0.5,0.2,0.9,0.5,1.2,0.9c0.3,0.4,0.4,0.8,0.4,1.3c0,0.9-0.3,1.5-0.8,1.9c-0.6,0.4-1.4,0.6-2.6,0.6h-2.7c-0.2,0-0.3,0-0.4-0.1
			c-0.1-0.1-0.2-0.2-0.2-0.4v-7.9c0-0.2,0.1-0.3,0.2-0.4c0.1-0.1,0.3-0.1,0.4-0.1H85.8z M88.1,162.1c0-0.3,0-0.5-0.1-0.7
			c-0.1-0.2-0.2-0.3-0.4-0.5s-0.4-0.2-0.7-0.3c-0.3-0.1-0.7-0.1-1.1-0.1H84v3h1.6c0.5,0,0.8,0,1.2-0.1c0.3-0.1,0.6-0.2,0.8-0.3
			c0.2-0.1,0.3-0.3,0.4-0.5C88.1,162.5,88.1,162.3,88.1,162.1z M88.4,166.1c0-0.3,0-0.5-0.1-0.7c-0.1-0.2-0.2-0.4-0.4-0.5
			c-0.2-0.1-0.4-0.2-0.7-0.3c-0.3-0.1-0.7-0.1-1.2-0.1H84v3.1h2.1c0.8,0,1.4-0.1,1.8-0.4S88.4,166.6,88.4,166.1z"/>
		<path d="M93.1,164.5c-0.5-0.6-1-1.3-1.5-2c-0.5-0.7-1-1.4-1.5-2c0-0.1-0.1-0.1-0.1-0.2c0-0.1-0.1-0.1-0.1-0.2
			c0-0.1,0.1-0.3,0.2-0.4c0.1-0.1,0.3-0.1,0.4-0.1c0.2,0,0.3,0.1,0.4,0.2l2.7,3.8l2.7-3.8c0.1-0.2,0.3-0.3,0.4-0.3
			c0.1,0,0.2,0,0.4,0.1c0.1,0.1,0.2,0.2,0.2,0.4c0,0.1,0,0.1-0.1,0.2s-0.1,0.1-0.1,0.2l-3,4.1v3.7c0,0.2,0,0.3-0.1,0.4
			c-0.1,0.1-0.2,0.1-0.4,0.1c-0.2,0-0.3,0-0.4-0.1c-0.1-0.1-0.2-0.2-0.2-0.4V164.5z"/>
		<path d="M101.9,160c0-0.2,0.1-0.3,0.2-0.4s0.2-0.1,0.4-0.1s0.3,0,0.4,0.1s0.1,0.2,0.1,0.4v3.3h4.9V160c0-0.2,0-0.3,0.1-0.4
			c0.1-0.1,0.2-0.1,0.4-0.1s0.3,0,0.4,0.1s0.2,0.2,0.2,0.4v8.1c0,0.2-0.1,0.3-0.2,0.4c-0.1,0.1-0.2,0.1-0.4,0.1s-0.3,0-0.4-0.1
			c-0.1-0.1-0.1-0.2-0.1-0.4v-3.8h-4.9v3.8c0,0.2,0,0.3-0.1,0.4c-0.1,0.1-0.2,0.1-0.4,0.1s-0.3,0-0.4-0.1c-0.1-0.1-0.2-0.2-0.2-0.4
			V160z"/>
		<path d="M119.5,164.1c0,0.7-0.1,1.4-0.3,2c-0.2,0.6-0.5,1.1-0.9,1.5c-0.4,0.4-0.8,0.7-1.4,0.9c-0.5,0.2-1.1,0.3-1.8,0.3
			c-0.6,0-1.2-0.1-1.8-0.3c-0.5-0.2-1-0.5-1.4-0.9c-0.4-0.4-0.7-0.9-0.9-1.5c-0.2-0.6-0.3-1.2-0.3-2c0-0.7,0.1-1.4,0.3-2
			s0.5-1.1,0.9-1.5c0.4-0.4,0.8-0.7,1.4-0.9s1.1-0.3,1.8-0.3c0.6,0,1.2,0.1,1.8,0.3c0.5,0.2,1,0.5,1.4,0.9c0.4,0.4,0.7,0.9,0.9,1.5
			S119.5,163.4,119.5,164.1z M112.1,164.1c0,0.6,0.1,1.1,0.2,1.5c0.1,0.5,0.3,0.8,0.6,1.2c0.3,0.3,0.6,0.6,1,0.7
			c0.4,0.2,0.8,0.3,1.3,0.3c0.5,0,0.9-0.1,1.3-0.3s0.7-0.4,1-0.7c0.3-0.3,0.5-0.7,0.6-1.2c0.1-0.5,0.2-1,0.2-1.5
			c0-0.6-0.1-1.1-0.2-1.5c-0.1-0.5-0.3-0.8-0.6-1.2c-0.3-0.3-0.6-0.6-1-0.7s-0.8-0.3-1.3-0.3c-0.5,0-0.9,0.1-1.3,0.3
			c-0.4,0.2-0.7,0.4-1,0.7c-0.3,0.3-0.5,0.7-0.6,1.2C112.2,163,112.1,163.5,112.1,164.1z"/>
		<path d="M127.7,167.8c0.1,0.1,0.1,0.2,0.1,0.2c0,0.1,0,0.1,0,0.1c0,0.2-0.1,0.3-0.2,0.4c-0.1,0.1-0.3,0.1-0.4,0.1
			c-0.1,0-0.2,0-0.3-0.1c-0.1-0.1-0.2-0.2-0.2-0.3l-1.9-3.5c-0.1,0-0.1,0-0.2,0c-0.1,0-0.1,0-0.2,0h-1.9v3.4c0,0.2,0,0.3-0.1,0.4
			c-0.1,0.1-0.2,0.1-0.4,0.1c-0.2,0-0.3,0-0.4-0.1c-0.1-0.1-0.1-0.2-0.1-0.4v-8c0-0.2,0.1-0.3,0.2-0.4c0.1-0.1,0.3-0.1,0.4-0.1h2.3
			c1.2,0,2.1,0.2,2.6,0.7c0.6,0.4,0.8,1.1,0.8,2c0,0.2,0,0.4-0.1,0.6c0,0.2-0.1,0.4-0.3,0.7c-0.1,0.2-0.3,0.4-0.5,0.6
			c-0.2,0.2-0.5,0.3-0.9,0.5L127.7,167.8z M122.3,160.6v3.2h1.7c0.5,0,0.8,0,1.1-0.1s0.5-0.2,0.7-0.3s0.3-0.3,0.4-0.5
			c0.1-0.2,0.1-0.4,0.1-0.7c0-0.3,0-0.5-0.1-0.7c-0.1-0.2-0.2-0.4-0.4-0.5s-0.4-0.2-0.7-0.3c-0.3-0.1-0.7-0.1-1.1-0.1H122.3z"/>
		<path d="M133.3,163.7c0.8,0.2,1.3,0.5,1.7,0.9c0.4,0.4,0.5,0.9,0.5,1.6c0,0.5-0.1,0.9-0.3,1.2c-0.2,0.3-0.4,0.6-0.7,0.8
			c-0.3,0.2-0.6,0.4-1,0.5s-0.7,0.1-1.1,0.1c-0.7,0-1.3-0.1-1.9-0.3c-0.6-0.2-1.1-0.5-1.5-0.9c-0.1-0.1-0.2-0.2-0.2-0.3
			c0-0.1,0-0.2,0-0.2c0-0.1,0.1-0.3,0.2-0.4c0.1-0.1,0.3-0.2,0.4-0.2c0.1,0,0.1,0,0.2,0.1c0.1,0,0.1,0.1,0.2,0.1
			c0.4,0.4,0.8,0.7,1.2,0.9s0.9,0.2,1.4,0.2c0.6,0,1-0.1,1.4-0.4c0.4-0.3,0.5-0.6,0.5-1.1c0-0.4-0.1-0.8-0.4-1
			c-0.3-0.3-0.7-0.5-1.3-0.6l-1.1-0.3c-0.8-0.2-1.4-0.5-1.8-0.9c-0.4-0.4-0.6-0.9-0.6-1.6c0-0.4,0.1-0.8,0.3-1.1
			c0.2-0.3,0.4-0.6,0.7-0.8c0.3-0.2,0.6-0.4,1-0.4c0.4-0.1,0.7-0.1,1.1-0.1c0.6,0,1.2,0.1,1.7,0.3c0.5,0.2,1,0.5,1.3,1
			c0.1,0.1,0.1,0.2,0.1,0.2c0,0.1,0,0.1,0,0.2c0,0.1-0.1,0.3-0.2,0.4c-0.1,0.1-0.2,0.1-0.4,0.1c-0.1,0-0.2,0-0.2-0.1
			s-0.2-0.1-0.3-0.2c-0.3-0.4-0.7-0.6-1-0.8s-0.7-0.2-1.2-0.2c-0.2,0-0.5,0-0.7,0.1c-0.2,0.1-0.4,0.2-0.6,0.3
			c-0.2,0.1-0.3,0.3-0.4,0.5s-0.2,0.4-0.2,0.6c0,0.2,0,0.3,0.1,0.4c0,0.1,0.1,0.3,0.2,0.4c0.1,0.1,0.3,0.2,0.5,0.3
			c0.2,0.1,0.5,0.2,0.8,0.3L133.3,163.7z"/>
		<path d="M138.4,164.5v3.1h4.6c0.2,0,0.3,0,0.4,0.1c0.1,0.1,0.1,0.2,0.1,0.4s0,0.3-0.1,0.4c-0.1,0.1-0.2,0.1-0.4,0.1h-5.1
			c-0.2,0-0.3,0-0.4-0.1c-0.1-0.1-0.2-0.2-0.2-0.4v-7.9c0-0.2,0.1-0.3,0.2-0.4c0.1-0.1,0.3-0.1,0.4-0.1h5.1c0.2,0,0.3,0,0.4,0.1
			c0.1,0.1,0.1,0.2,0.1,0.4c0,0.2,0,0.3-0.1,0.4c-0.1,0.1-0.2,0.1-0.4,0.1h-4.6v2.9h4.4c0.2,0,0.3,0,0.4,0.1s0.1,0.2,0.1,0.4
			c0,0.2,0,0.3-0.1,0.4c-0.1,0.1-0.2,0.1-0.4,0.1H138.4z"/>
		<path d="M148,159.6c1.2,0,2.1,0.2,2.6,0.6c0.6,0.4,0.8,1,0.8,1.8c0,0.5-0.1,0.8-0.3,1.2s-0.5,0.6-1,0.8c0.5,0.2,0.9,0.5,1.2,0.9
			c0.3,0.4,0.4,0.8,0.4,1.3c0,0.9-0.3,1.5-0.8,1.9c-0.6,0.4-1.4,0.6-2.6,0.6h-2.7c-0.2,0-0.3,0-0.4-0.1s-0.2-0.2-0.2-0.4v-7.9
			c0-0.2,0.1-0.3,0.2-0.4c0.1-0.1,0.3-0.1,0.4-0.1H148z M150.3,162.1c0-0.3,0-0.5-0.1-0.7c-0.1-0.2-0.2-0.3-0.4-0.5
			c-0.2-0.1-0.4-0.2-0.7-0.3c-0.3-0.1-0.7-0.1-1.1-0.1h-1.7v3h1.6c0.5,0,0.8,0,1.2-0.1c0.3-0.1,0.6-0.2,0.8-0.3
			c0.2-0.1,0.3-0.3,0.4-0.5C150.2,162.5,150.3,162.3,150.3,162.1z M150.6,166.1c0-0.3,0-0.5-0.1-0.7c-0.1-0.2-0.2-0.4-0.4-0.5
			c-0.2-0.1-0.4-0.2-0.7-0.3c-0.3-0.1-0.7-0.1-1.2-0.1h-1.9v3.1h2.1c0.8,0,1.4-0.1,1.8-0.4S150.6,166.6,150.6,166.1z"/>
		<path d="M159.9,167.8c0.1,0.1,0.1,0.2,0.1,0.2s0,0.1,0,0.1c0,0.2-0.1,0.3-0.2,0.4s-0.3,0.1-0.4,0.1c-0.1,0-0.2,0-0.3-0.1
			c-0.1-0.1-0.2-0.2-0.2-0.3l-1.9-3.5c-0.1,0-0.1,0-0.2,0c-0.1,0-0.1,0-0.2,0h-1.9v3.4c0,0.2,0,0.3-0.1,0.4
			c-0.1,0.1-0.2,0.1-0.4,0.1c-0.2,0-0.3,0-0.4-0.1c-0.1-0.1-0.1-0.2-0.1-0.4v-8c0-0.2,0.1-0.3,0.2-0.4c0.1-0.1,0.3-0.1,0.4-0.1h2.3
			c1.2,0,2.1,0.2,2.6,0.7s0.8,1.1,0.8,2c0,0.2,0,0.4-0.1,0.6c0,0.2-0.1,0.4-0.3,0.7c-0.1,0.2-0.3,0.4-0.5,0.6
			c-0.2,0.2-0.5,0.3-0.9,0.5L159.9,167.8z M154.6,160.6v3.2h1.7c0.5,0,0.8,0,1.1-0.1c0.3-0.1,0.5-0.2,0.7-0.3
			c0.2-0.1,0.3-0.3,0.4-0.5c0.1-0.2,0.1-0.4,0.1-0.7c0-0.3,0-0.5-0.1-0.7c-0.1-0.2-0.2-0.4-0.4-0.5c-0.2-0.1-0.4-0.2-0.7-0.3
			c-0.3-0.1-0.7-0.1-1.1-0.1H154.6z"/>
		<path d="M161.5,168.7c-0.2,0-0.3,0-0.4-0.1c-0.1-0.1-0.2-0.2-0.2-0.3c0,0,0-0.1,0-0.1c0,0,0-0.1,0.1-0.2l3.4-8.1
			c0.1-0.1,0.1-0.2,0.2-0.3c0.1-0.1,0.2-0.1,0.4-0.1c0.2,0,0.3,0,0.4,0.1c0.1,0.1,0.2,0.1,0.2,0.3l3.4,8.1c0,0.1,0.1,0.1,0.1,0.2
			c0,0,0,0.1,0,0.1c0,0.2-0.1,0.3-0.2,0.4c-0.1,0.1-0.3,0.1-0.5,0.1c-0.1,0-0.2,0-0.3-0.1c-0.1-0.1-0.1-0.1-0.2-0.2l-1-2.3h-4
			l-1,2.4C161.8,168.6,161.6,168.7,161.5,168.7z M164.9,161l-1.6,4.1h3.2L164.9,161z"/>
		<path d="M171.5,161.4v6.8c0,0.2,0,0.3-0.1,0.4s-0.2,0.1-0.4,0.1c-0.2,0-0.3,0-0.4-0.1s-0.1-0.2-0.1-0.4v-8.1
			c0-0.2,0.1-0.4,0.2-0.4c0.1-0.1,0.3-0.1,0.5-0.1c0.2,0,0.4,0,0.5,0.1s0.2,0.2,0.3,0.4l4.6,6.9V160c0-0.2,0-0.3,0.1-0.4
			c0.1-0.1,0.2-0.1,0.4-0.1c0.2,0,0.3,0,0.4,0.1c0.1,0.1,0.1,0.2,0.1,0.4v8.1c0,0.2-0.1,0.4-0.2,0.4c-0.1,0.1-0.3,0.1-0.5,0.1
			c-0.2,0-0.4,0-0.5-0.1c-0.1-0.1-0.2-0.2-0.3-0.4L171.5,161.4z"/>
		<path d="M180.3,168.6c-0.2,0-0.3,0-0.4-0.1s-0.2-0.2-0.2-0.4v-7.9c0-0.2,0.1-0.3,0.2-0.4c0.1-0.1,0.3-0.1,0.4-0.1h2.4
			c0.7,0,1.3,0.1,1.8,0.3s1,0.5,1.4,0.8c0.4,0.4,0.7,0.8,0.9,1.4s0.3,1.2,0.3,2c0,0.8-0.1,1.4-0.3,2s-0.5,1-0.9,1.4
			s-0.9,0.6-1.4,0.8c-0.6,0.2-1.2,0.3-1.8,0.3H180.3z M186,164.1c0-0.6-0.1-1.1-0.2-1.6c-0.2-0.4-0.4-0.8-0.7-1.1s-0.7-0.5-1.1-0.7
			c-0.4-0.1-0.9-0.2-1.4-0.2h-1.8v7h1.8c0.5,0,1-0.1,1.4-0.2c0.4-0.1,0.8-0.4,1.1-0.6c0.3-0.3,0.5-0.6,0.7-1.1S186,164.7,186,164.1z
			"/>
		<path d="M192.9,163.7c0.8,0.2,1.3,0.5,1.7,0.9c0.4,0.4,0.5,0.9,0.5,1.6c0,0.5-0.1,0.9-0.3,1.2s-0.4,0.6-0.7,0.8
			c-0.3,0.2-0.6,0.4-1,0.5c-0.4,0.1-0.7,0.1-1.1,0.1c-0.7,0-1.3-0.1-1.9-0.3c-0.6-0.2-1.1-0.5-1.5-0.9c-0.1-0.1-0.2-0.2-0.2-0.3
			c0-0.1,0-0.2,0-0.2c0-0.1,0.1-0.3,0.2-0.4c0.1-0.1,0.3-0.2,0.4-0.2c0.1,0,0.1,0,0.2,0.1c0.1,0,0.1,0.1,0.2,0.1
			c0.4,0.4,0.8,0.7,1.2,0.9s0.9,0.2,1.4,0.2c0.6,0,1-0.1,1.4-0.4c0.4-0.3,0.5-0.6,0.5-1.1c0-0.4-0.1-0.8-0.4-1
			c-0.3-0.3-0.7-0.5-1.3-0.6l-1.1-0.3c-0.8-0.2-1.4-0.5-1.8-0.9c-0.4-0.4-0.6-0.9-0.6-1.6c0-0.4,0.1-0.8,0.3-1.1
			c0.2-0.3,0.4-0.6,0.7-0.8c0.3-0.2,0.6-0.4,1-0.4c0.4-0.1,0.7-0.1,1.1-0.1c0.6,0,1.2,0.1,1.7,0.3c0.5,0.2,1,0.5,1.3,1
			c0.1,0.1,0.1,0.2,0.1,0.2c0,0.1,0,0.1,0,0.2c0,0.1-0.1,0.3-0.2,0.4c-0.1,0.1-0.2,0.1-0.4,0.1c-0.1,0-0.2,0-0.2-0.1
			c-0.1,0-0.2-0.1-0.3-0.2c-0.3-0.4-0.7-0.6-1-0.8s-0.7-0.2-1.2-0.2c-0.2,0-0.5,0-0.7,0.1c-0.2,0.1-0.4,0.2-0.6,0.3
			c-0.2,0.1-0.3,0.3-0.4,0.5s-0.2,0.4-0.2,0.6c0,0.2,0,0.3,0.1,0.4c0,0.1,0.1,0.3,0.2,0.4s0.3,0.2,0.5,0.3c0.2,0.1,0.5,0.2,0.8,0.3
			L192.9,163.7z"/>
	</g>
	<path d="M244.2,117.8c-4.3-6.9-8.8-13.7-13.4-20.4c4.5-4.2,8.9-8.1,13.2-11.6l1.4-1.2l-1.7-0.6c-16.3-5.4-33.4-7.3-53.9-6.2
		c-0.8-10.2-0.3-21.2,6.5-29.3l0.5-0.6l-0.5-0.6c-0.2-0.2-20.1-24.2-56.9-24.2c-36.8,0-56.7,23.9-56.9,24.2L81.9,48l0.5,0.6
		c8.8,10.5,7,25.7,5.6,37.9c-0.2,1.8-0.4,3.6-0.6,5.2c-20.2,1.1-37.2-0.8-53.2-6.1l-2.8-0.9l1.6,2.4c4.3,6.4,8.8,12.8,13.4,18.9
		c-4.5,4.7-8.9,9.1-13.2,13l-1.2,1.2l1.6,0.5c8.2,2.7,16.7,4.5,25.7,5.6v11l0.9,0.1c5.5,0.6,11.1,0.8,16.6,0.8
		c11.4,0,22.8-1.1,34.1-2.7c7.8,6,17.2,11.2,28.1,15.4l0.4,0.1l0.4-0.1c16.9-6.5,30.4-15.6,39.4-26c10.9-1.1,21.7-1.5,32.5-0.8
		l1.1,0.1v-11c10.8,0.8,20.8,2.8,30.4,6l2.6,0.9L244.2,117.8z M84.5,48c3.3-3.7,22.3-22.8,54.8-22.8c32.5,0,51.5,19.2,54.8,22.8
		c-8.7,11.1-7,26.4-5.5,38.8c0.1,0.8,0.2,1.5,0.3,2.2l-0.5,0c-16.8,1-33.5,4-49.9,6.8c-7.4,1.3-14.9,2.6-22.4,3.7l10.1-30.1
		l4.8,10.4l-1.4,3.5c-0.1,0.2-0.1,0.5,0,0.7l1.5,3.7c0.1,0.2,0.2,0.4,0.4,0.5l7.1,4.4c0.2,0.1,0.3,0.1,0.5,0.1c0.2,0,0.4,0,0.5-0.1
		l7.3-4.4c0.2-0.1,0.3-0.3,0.4-0.5l1.5-3.7c0.1-0.2,0.1-0.5,0-0.7l-1.4-3.5l4.8-10.4l9.2,22.6c0.7-0.1,1.4-0.2,2.1-0.3l-10.1-25.3
		l-0.3-11.3c0-0.1,0-0.2-0.1-0.3l-3.4-8.7h0.5c0.4,0,0.7-0.2,0.9-0.5l3-5.9c0.1-0.2,0.1-0.4,0.1-0.6l-1.2-8.4c0,0,0-0.1,0-0.1
		c0-0.1,0-0.1-0.1-0.2c0,0-0.1-0.1-0.1-0.1c0-0.1-0.1-0.1-0.2-0.2c0,0,0,0-0.1,0c0,0-0.1-0.1-0.1-0.1c0,0-0.1,0-0.1-0.1
		c0,0-0.1,0-0.1,0c-0.1,0-0.1,0-0.2,0l0,0c0,0-0.1,0-0.1,0c0,0,0,0-0.1,0c-0.1,0-0.2,0.1-0.3,0.1c0,0-0.1,0-0.1,0.1
		c0,0-0.1,0.1-0.1,0.1l-8.5,9.7h-3.4c0,0,0,0-0.1,0h-3.5l-8.5-9.7c-0.1-0.1-0.1-0.1-0.1-0.1v0c0,0-0.1-0.1-0.1-0.1
		c-0.1-0.1-0.2-0.1-0.3-0.1c0,0,0,0-0.1,0c0,0-0.1,0-0.1,0c0,0,0,0-0.1,0c-0.1,0-0.1,0-0.2,0c0,0-0.1,0-0.1,0c0,0-0.1,0-0.2,0.1
		c0,0-0.1,0.1-0.1,0.1c0,0-0.1,0-0.1,0c-0.1,0.1-0.1,0.1-0.2,0.2c0,0-0.1,0.1-0.1,0.1c0,0.1-0.1,0.1-0.1,0.2c0,0,0,0.1,0,0.1
		l-1.2,8.4c0,0.2,0,0.4,0.1,0.6l3,5.9c0.2,0.3,0.5,0.5,0.9,0.5h0.5l-3.4,8.6c0,0.1-0.1,0.2-0.1,0.3l-0.3,11.3l-11.1,33.5
		c-7.8,1.1-15.7,2.1-23.5,2.6l0-0.2l-0.3,0c-0.7-3.4-0.9-6.7-0.6-10.1c0.2-1.7,0.4-3.6,0.6-5.5C91.5,74.4,93.2,59.1,84.5,48z
		 M131.1,45.5c0-0.1,0.1-0.2,0.1-0.3c0,0,0-0.1,0-0.1c0,0,0-0.1,0-0.1c0,0,0-0.1,0-0.1l-2.7-10.1l5.7,6.6c0,1.5,0.2,8.1,0,15.7
		c-3.2-0.6-5.6-1.7-6.7-2.3L131.1,45.5z M128.8,44.2l-2.6-5l0.5-3.3L128.8,44.2L128.8,44.2z M136.2,42h2.8c0,0,0,0,0.1,0h2.9
		c-0.1,2.5-0.2,8.5,0,15.4c-1.9,0.2-3.9,0.2-5.9,0C136.5,50.5,136.3,44.4,136.2,42z M142.2,59.4c0.4,9.5,1.5,16.5,3.1,20.8
		c0,0,0,0,0,0.1l1.4,3.5l-1.2,3l-6.5,3.9l-6.3-3.9l-1.2-3l1.4-3.5c0,0,0,0,0,0c1.6-4.2,2.7-11.3,3.1-20.9
		C138.2,59.6,140.1,59.6,142.2,59.4z M147.1,44.9c0,0,0,0.1,0,0.1c0,0,0,0.1,0,0.1c0,0,0,0.1,0,0.1c0,0.1,0,0.1,0,0.2l0,0
		c0,0,0,0,0,0.1l3.6,9.2c-2.2,1.1-4.4,1.9-6.7,2.4c-0.3-7.6-0.1-14.2,0-15.7l5.7-6.6L147.1,44.9z M151.6,35.8l0.5,3.3l-2.6,5h-0.1
		L151.6,35.8z M151.1,56.8l0.3,9.6l-5,10.8c-1.1-4.1-1.9-10.2-2.2-18.1C146.5,58.6,148.9,57.9,151.1,56.8z M134.1,59
		c-0.3,7.9-1.1,14-2.2,18.1l-5-10.8l0.3-9.5C128.6,57.5,131,58.5,134.1,59z M88,102.7c0.1,0,0.1,0,0.2,0c-4.2,0.2-8.4,0.4-12.6,0.3
		c4.6-1.1,9.1-3,11.7-6.3C87.4,98.7,87.6,100.7,88,102.7z M59.3,102.1v22.3c-8.2-0.9-15.9-2.6-23.5-4.9c4.1-3.9,8.4-8.1,12.6-12.6
		l0.6-0.6l-0.5-0.7c-4.1-5.6-8.2-11.3-12.2-17.1c15.2,4.6,31.4,6.3,50.4,5.4c-3.8,7.9-18.9,8.6-24.5,8.6c-0.6-0.1-1.2-0.1-1.8-0.2
		L59.3,102.1z M139.3,149c-9.8-3.8-18.4-8.5-25.6-13.8c8.4-1.2,16.8-2.7,25.1-4.1c12.3-2.1,24.8-4.3,37.3-5.7
		C167.4,134.7,154.9,143,139.3,149z M210.6,122.2c-24.1-1.5-48.5,2.8-72.2,6.9c-25.3,4.4-51.5,9-77.1,6.4v-31.2c0.2,0,0.5,0,0.8,0
		c25.6,2.4,51.5-2.1,76.6-6.5c23.2-4.1,47.1-8.2,70.7-6.9c0.4,0,0.8,0.1,1.1,0.1V122.2z M190.4,84.4c2,1.9,4.9,3.3,8,4.3
		c-2.5,0-5,0.1-7.5,0.2c-0.1-0.8-0.2-1.5-0.3-2.3C190.5,85.8,190.4,85.1,190.4,84.4z M212.6,111.4V89.1l-0.9-0.1
		c-0.6,0-1.2-0.1-1.8-0.1c-4.5-0.5-14.7-2-18.5-6.4c-0.7-0.8-1.2-1.7-1.4-2.6c19.4-1.1,35.8,0.7,51.3,5.6
		c-4.1,3.4-8.3,7.1-12.5,11.1l-0.6,0.6l0.5,0.7c4.2,6.1,8.3,12.4,12.3,18.7C232,113.8,222.7,112.1,212.6,111.4z"/>
</g>
</svg>
