<?xml version="1.0" encoding="utf-8"?>
<!-- Generator: Adobe Illustrator 20.1.0, SVG Export Plug-In . SVG Version: 6.00 Build 0)  -->
<svg version="1.1" id="Ebene_1" xmlns="http://www.w3.org/2000/svg" xmlns:xlink="http://www.w3.org/1999/xlink" x="0px" y="0px"
	 viewBox="0 0 344 196" style="enable-background:new 0 0 344 196;" xml:space="preserve">
<style type="text/css">
	.st0{fill:#1D1D1B;}
</style>
<g>
	<g>
		<g>
			<path d="M25.7,147.5c0-0.6,0.1-0.9,0.4-1.2c0.3-0.2,0.7-0.3,1.2-0.3s0.9,0.1,1.2,0.3c0.3,0.2,0.4,0.6,0.4,1.2v9.1h13.6v-9.1
				c0-0.6,0.1-0.9,0.4-1.2c0.3-0.2,0.7-0.3,1.2-0.3s0.9,0.1,1.2,0.3s0.4,0.6,0.4,1.2V170c0,0.6-0.1,0.9-0.4,1.2
				c-0.3,0.2-0.7,0.3-1.2,0.3s-0.9-0.1-1.2-0.3s-0.4-0.6-0.4-1.2v-10.7H28.9V170c0,0.6-0.1,0.9-0.4,1.2c-0.3,0.2-0.7,0.3-1.2,0.3
				s-0.9-0.1-1.2-0.3c-0.3-0.2-0.4-0.6-0.4-1.2C25.7,170,25.7,147.5,25.7,147.5z"/>
			<path d="M77.8,158.8c0,2-0.3,3.8-0.9,5.5c-0.6,1.6-1.4,3-2.4,4.1s-2.3,2-3.8,2.6s-3.1,0.9-4.9,0.9c-1.8,0-3.4-0.3-4.9-0.9
				c-1.5-0.6-2.7-1.5-3.8-2.6c-1-1.1-1.9-2.5-2.4-4.1c-0.6-1.6-0.9-3.4-0.9-5.5c0-2,0.3-3.8,0.9-5.5c0.6-1.6,1.4-3,2.4-4.1
				s2.3-2,3.8-2.6s3.1-0.9,4.9-0.9s3.4,0.3,4.9,0.9c1.5,0.6,2.7,1.5,3.8,2.6c1,1.1,1.9,2.5,2.4,4.1
				C77.5,154.9,77.8,156.7,77.8,158.8z M57.4,158.8c0,1.6,0.2,3,0.5,4.2c0.4,1.3,0.9,2.3,1.6,3.2c0.7,0.9,1.6,1.6,2.7,2.1
				c1.1,0.5,2.3,0.7,3.7,0.7s2.6-0.2,3.7-0.7s1.9-1.2,2.7-2.1c0.7-0.9,1.3-2,1.6-3.2c0.4-1.3,0.5-2.7,0.5-4.2s-0.2-2.9-0.5-4.2
				c-0.4-1.3-0.9-2.4-1.6-3.2c-0.7-0.9-1.6-1.6-2.7-2.1s-2.3-0.7-3.7-0.7c-1.4,0-2.6,0.2-3.7,0.7c-1.1,0.5-1.9,1.2-2.7,2.1
				c-0.7,0.9-1.3,2-1.6,3.2C57.6,155.8,57.4,157.2,57.4,158.8z"/>
			<path d="M103.9,169.1c0.1,0.3,0.2,0.5,0.3,0.6c0,0.1,0,0.3,0,0.4c0,0.4-0.2,0.8-0.6,1s-0.8,0.4-1.2,0.4c-0.3,0-0.6-0.1-0.8-0.3
				c-0.2-0.2-0.4-0.5-0.6-0.9l-5.1-9.8c-0.2,0-0.4,0-0.6,0.1c-0.2,0-0.4,0-0.6,0h-5.4v9.4c0,0.6-0.1,0.9-0.4,1.2
				c-0.3,0.2-0.7,0.3-1.2,0.3s-0.9-0.1-1.2-0.3s-0.4-0.6-0.4-1.2v-22.2c0-0.6,0.1-0.9,0.5-1.2c0.3-0.2,0.7-0.4,1.2-0.4h6.4
				c3.3,0,5.7,0.6,7.3,1.8c1.5,1.2,2.3,3,2.3,5.4c0,0.5-0.1,1.1-0.2,1.7c-0.1,0.6-0.4,1.2-0.7,1.8c-0.3,0.6-0.8,1.1-1.4,1.7
				c-0.6,0.5-1.4,1-2.4,1.3L103.9,169.1z M89.2,149v8.9h4.7c1.3,0,2.3-0.1,3.2-0.3c0.8-0.2,1.5-0.5,2-0.8c0.5-0.4,0.9-0.8,1.1-1.4
				c0.2-0.6,0.3-1.2,0.3-1.9s-0.1-1.3-0.3-1.9c-0.2-0.6-0.6-1-1.1-1.4s-1.2-0.7-2-0.9S95.2,149,94,149H89.2z"/>
			<path d="M123.1,157.7c2.1,0.6,3.6,1.5,4.6,2.5c1,1.1,1.5,2.5,1.5,4.3c0,1.3-0.2,2.4-0.7,3.3c-0.5,0.9-1.1,1.7-1.9,2.3
				s-1.7,1-2.7,1.3s-2.1,0.4-3.2,0.4c-1.8,0-3.5-0.3-5.2-0.8c-1.6-0.5-3-1.4-4.2-2.6c-0.3-0.3-0.5-0.6-0.6-0.8s-0.1-0.4-0.1-0.6
				c0-0.4,0.2-0.7,0.5-1c0.4-0.3,0.7-0.5,1.1-0.5c0.2,0,0.4,0.1,0.6,0.2c0.2,0.1,0.3,0.3,0.5,0.4c1.2,1.2,2.3,2,3.4,2.4
				s2.4,0.6,3.8,0.6c1.5,0,2.8-0.4,3.8-1.1c1-0.7,1.5-1.7,1.5-3.1c0-1.2-0.4-2.1-1.1-2.8s-1.9-1.3-3.6-1.8l-3.1-0.9
				c-2.2-0.6-3.9-1.5-5-2.5c-1.1-1.1-1.6-2.5-1.6-4.4c0-1.2,0.3-2.2,0.8-3.1c0.5-0.9,1.2-1.6,2-2.1c0.8-0.6,1.7-1,2.7-1.2
				c1-0.3,2-0.4,3-0.4c1.7,0,3.2,0.3,4.7,0.8c1.5,0.6,2.7,1.5,3.7,2.7c0.2,0.3,0.3,0.5,0.4,0.7s0.1,0.4,0.1,0.6c0,0.4-0.2,0.7-0.5,1
				s-0.6,0.4-1,0.4c-0.2,0-0.5-0.1-0.7-0.2c-0.2-0.1-0.4-0.3-0.7-0.6c-0.9-1-1.8-1.7-2.8-2.2c-0.9-0.4-2-0.6-3.3-0.6
				c-0.7,0-1.3,0.1-1.9,0.3s-1.2,0.4-1.7,0.8c-0.5,0.3-0.9,0.8-1.2,1.3c-0.3,0.5-0.5,1.1-0.5,1.8c0,0.5,0.1,0.9,0.2,1.2
				c0.1,0.4,0.4,0.7,0.7,1.1c0.3,0.3,0.8,0.6,1.4,0.9c0.6,0.3,1.3,0.6,2.2,0.8L123.1,157.7z"/>
			<path d="M140.5,159.9v8.6h12.7c0.5,0,0.8,0.1,1,0.3s0.3,0.6,0.3,1c0,0.5-0.1,0.8-0.3,1s-0.5,0.4-1,0.4H139
				c-0.5,0-0.9-0.1-1.2-0.4c-0.3-0.2-0.5-0.6-0.5-1.2v-21.9c0-0.6,0.1-0.9,0.5-1.2c0.3-0.2,0.7-0.4,1.2-0.4h14.3
				c0.5,0,0.8,0.1,1,0.3s0.3,0.6,0.3,1c0,0.5-0.1,0.8-0.3,1s-0.5,0.4-1,0.4h-12.7v8.1h12.1c0.5,0,0.8,0.1,1,0.3s0.3,0.6,0.3,1
				c0,0.5-0.1,0.8-0.3,1s-0.5,0.4-1,0.4h-12.2V159.9z"/>
			<path d="M170.6,146.3c3.3,0,5.7,0.5,7.3,1.6c1.5,1,2.3,2.7,2.3,5.1c0,1.2-0.3,2.3-0.9,3.2c-0.6,0.9-1.5,1.6-2.6,2.2
				c1.5,0.5,2.6,1.3,3.3,2.4c0.7,1.1,1.1,2.2,1.1,3.5c0,2.4-0.8,4.2-2.3,5.3s-3.9,1.7-7.1,1.7h-7.4c-0.5,0-0.9-0.1-1.2-0.4
				c-0.3-0.2-0.5-0.6-0.5-1.2v-21.9c0-0.6,0.1-0.9,0.5-1.2c0.3-0.2,0.7-0.4,1.2-0.4L170.6,146.3L170.6,146.3z M176.9,153.1
				c0-0.7-0.1-1.3-0.3-1.9c-0.2-0.5-0.6-0.9-1.1-1.3c-0.5-0.3-1.2-0.6-2-0.7c-0.8-0.2-1.9-0.2-3.1-0.2h-4.8v8.2h4.5
				c1.3,0,2.3-0.1,3.2-0.3s1.6-0.4,2.1-0.8c0.5-0.3,0.9-0.8,1.1-1.3C176.8,154.4,176.9,153.8,176.9,153.1z M177.7,164.2
				c0-0.7-0.1-1.4-0.3-1.9s-0.6-1-1.1-1.4s-1.2-0.6-2.1-0.8c-0.9-0.2-1.9-0.3-3.2-0.3h-5.4v8.6h5.8c2.3,0,3.9-0.3,4.9-1
				C177.2,166.7,177.7,165.7,177.7,164.2z"/>
			<path d="M207,169.1c0.1,0.3,0.2,0.5,0.3,0.6c0,0.1,0,0.3,0,0.4c0,0.4-0.2,0.8-0.6,1c-0.4,0.2-0.8,0.4-1.2,0.4
				c-0.3,0-0.6-0.1-0.8-0.3s-0.4-0.5-0.6-0.9l-5.1-9.8c-0.2,0-0.4,0-0.6,0.1c-0.2,0-0.4,0-0.6,0h-5.4v9.4c0,0.6-0.1,0.9-0.4,1.2
				c-0.3,0.2-0.7,0.3-1.2,0.3s-0.9-0.1-1.2-0.3s-0.4-0.6-0.4-1.2v-22.2c0-0.6,0.1-0.9,0.5-1.2c0.3-0.2,0.7-0.4,1.2-0.4h6.4
				c3.3,0,5.7,0.6,7.3,1.8c1.5,1.2,2.3,3,2.3,5.4c0,0.5-0.1,1.1-0.2,1.7c-0.1,0.6-0.4,1.2-0.7,1.8s-0.8,1.1-1.4,1.7
				c-0.6,0.5-1.4,1-2.4,1.3L207,169.1z M192.2,149v8.9h4.7c1.3,0,2.3-0.1,3.2-0.3c0.8-0.2,1.5-0.5,2-0.8c0.5-0.4,0.9-0.8,1.1-1.4
				c0.2-0.6,0.3-1.2,0.3-1.9s-0.1-1.3-0.3-1.9c-0.2-0.6-0.6-1-1.1-1.4s-1.2-0.7-2-0.9s-1.8-0.3-3.1-0.3L192.2,149L192.2,149z"/>
			<path d="M214.8,171.5c-0.4,0-0.8-0.1-1.2-0.3s-0.6-0.5-0.6-1c0-0.1,0-0.2,0-0.3s0.1-0.3,0.2-0.5l9.5-22.5
				c0.1-0.3,0.3-0.5,0.6-0.7s0.6-0.3,1.1-0.3c0.6,0,1,0.1,1.2,0.3c0.3,0.2,0.4,0.4,0.6,0.7l9.4,22.4c0.1,0.2,0.1,0.3,0.2,0.5
				c0,0.1,0,0.2,0,0.3c0,0.4-0.2,0.8-0.6,1c-0.4,0.2-0.8,0.4-1.3,0.4c-0.3,0-0.6-0.1-0.8-0.3s-0.3-0.4-0.5-0.7l-2.8-6.5h-11
				l-2.8,6.5C215.7,171.2,215.3,171.5,214.8,171.5z M224.3,150.2l-4.4,11.2h8.8L224.3,150.2z"/>
			<path d="M245.9,151.2v18.9c0,0.5-0.1,0.9-0.4,1.1c-0.3,0.2-0.7,0.3-1.1,0.3c-0.5,0-0.9-0.1-1.1-0.3c-0.3-0.2-0.4-0.6-0.4-1.1
				v-22.5c0-0.6,0.2-1,0.5-1.2s0.8-0.3,1.4-0.3c0.6,0,1,0.1,1.3,0.4c0.3,0.3,0.6,0.6,0.8,1l12.8,19v-19c0-0.5,0.1-0.9,0.4-1.1
				c0.3-0.2,0.7-0.3,1.1-0.3c0.5,0,0.9,0.1,1.1,0.3c0.3,0.2,0.4,0.6,0.4,1.1V170c0,0.6-0.2,1-0.5,1.2s-0.8,0.3-1.4,0.3
				s-1-0.1-1.3-0.4c-0.3-0.3-0.6-0.6-0.8-1L245.9,151.2z"/>
			<path d="M273.9,171.2c-0.5,0-0.9-0.1-1.2-0.4c-0.3-0.2-0.5-0.6-0.5-1.2v-21.9c0-0.6,0.1-0.9,0.5-1.2c0.3-0.2,0.7-0.4,1.2-0.4h6.7
				c1.9,0,3.6,0.3,5.1,0.8s2.9,1.3,4,2.3s2,2.3,2.6,3.9c0.6,1.6,0.9,3.4,0.9,5.6c0,2.1-0.3,4-0.9,5.5c-0.6,1.6-1.5,2.9-2.6,3.9
				s-2.4,1.8-4,2.3c-1.5,0.5-3.2,0.8-5.1,0.8L273.9,171.2L273.9,171.2z M289.7,158.8c0-1.7-0.2-3.1-0.7-4.3s-1.1-2.2-1.9-3
				s-1.8-1.4-3-1.8c-1.2-0.4-2.4-0.6-3.8-0.6h-5v19.4h5c1.4,0,2.7-0.2,3.8-0.6c1.2-0.4,2.1-1,3-1.8c0.8-0.8,1.4-1.8,1.9-3
				C289.5,161.9,289.7,160.4,289.7,158.8z"/>
			<path d="M312.3,157.7c2.1,0.6,3.6,1.5,4.6,2.5c1,1.1,1.5,2.5,1.5,4.3c0,1.3-0.2,2.4-0.7,3.3c-0.5,0.9-1.1,1.7-1.9,2.3
				s-1.7,1-2.7,1.3s-2.1,0.4-3.2,0.4c-1.8,0-3.5-0.3-5.2-0.8c-1.6-0.5-3-1.4-4.2-2.6c-0.3-0.3-0.5-0.6-0.6-0.8s-0.1-0.4-0.1-0.6
				c0-0.4,0.2-0.7,0.5-1c0.4-0.3,0.7-0.5,1.1-0.5c0.2,0,0.4,0.1,0.6,0.2c0.2,0.1,0.3,0.3,0.5,0.4c1.2,1.2,2.3,2,3.4,2.4
				s2.4,0.6,3.8,0.6c1.5,0,2.8-0.4,3.8-1.1c1-0.7,1.5-1.7,1.5-3.1c0-1.2-0.4-2.1-1.1-2.8s-1.9-1.3-3.6-1.8l-3.1-0.9
				c-2.2-0.6-3.9-1.5-5-2.5c-1.1-1.1-1.6-2.5-1.6-4.4c0-1.2,0.3-2.2,0.8-3.1c0.5-0.9,1.2-1.6,2-2.1c0.8-0.6,1.7-1,2.7-1.2
				c1-0.3,2-0.4,3-0.4c1.7,0,3.2,0.3,4.7,0.8c1.5,0.6,2.7,1.5,3.7,2.7c0.2,0.3,0.3,0.5,0.4,0.7s0.1,0.4,0.1,0.6c0,0.4-0.2,0.7-0.5,1
				s-0.6,0.4-1,0.4c-0.2,0-0.5-0.1-0.7-0.2c-0.2-0.1-0.4-0.3-0.7-0.6c-0.9-1-1.8-1.7-2.8-2.2c-0.9-0.4-2-0.6-3.3-0.6
				c-0.7,0-1.3,0.1-1.9,0.3s-1.2,0.4-1.7,0.8c-0.5,0.3-0.9,0.8-1.2,1.3c-0.3,0.5-0.5,1.1-0.5,1.8c0,0.5,0.1,0.9,0.2,1.2
				c0.1,0.4,0.4,0.7,0.7,1.1c0.3,0.3,0.8,0.6,1.4,0.9c0.6,0.3,1.3,0.6,2.2,0.8L312.3,157.7z"/>
		</g>
		<path d="M172.9,126.5c-0.3,0-0.6-0.1-0.9-0.2l-11.5-7.1c-0.3-0.2-0.5-0.5-0.6-0.8l-2.4-6c-0.2-0.4-0.2-0.8,0-1.2l2.3-5.7l-7.9-17
			l-9.6,36.8c-0.2,0.8-1.1,1.4-2,1.2c-0.9-0.2-1.4-1.1-1.2-2l10.7-40.9l0.5-18.3c0-0.2,0-0.4,0.1-0.6l5.6-14.1h-0.8
			c-0.6,0-1.2-0.3-1.4-0.9l-4.9-9.5c-0.2-0.3-0.2-0.6-0.2-1l2-13.7c0-0.1,0-0.1,0.1-0.2c0-0.1,0.1-0.2,0.1-0.3l0.1-0.2
			c0.1-0.1,0.2-0.2,0.2-0.3l0.1-0.1c0.1,0,0.1-0.1,0.2-0.1c0.1,0,0.2-0.1,0.3-0.1c0,0,0.1,0,0.2,0c0.1,0,0.2,0,0.3,0h0.1h0.1h0.1
			c0.2,0,0.3,0.1,0.5,0.2c0.1,0,0.1,0.1,0.2,0.1l0,0c0,0,0.1,0.1,0.2,0.2l13.8,15.8h5.7h0.1h5.6l13.8-15.8c0-0.1,0.2-0.2,0.2-0.2
			c0.1,0,0.1-0.1,0.2-0.1c0.2-0.1,0.3-0.1,0.5-0.2h0.1c0.1,0,0.1,0,0.2,0l0,0c0.1,0,0.2,0,0.3,0c0,0,0.2,0,0.2,0.1
			c0.1,0,0.2,0.1,0.2,0.1c0.1,0,0.1,0.1,0.2,0.1l0.1,0.1c0.1,0.1,0.2,0.2,0.3,0.3c0,0,0.1,0.1,0.1,0.2c0.1,0.1,0.1,0.2,0.1,0.3
			c0,0.1,0,0.1,0.1,0.2l2,13.7c0,0.3,0,0.7-0.2,1l-4.9,9.5c-0.3,0.5-0.8,0.9-1.4,0.9H190l5.6,14.1c0.1,0.2,0.1,0.4,0.1,0.6l0.5,18.3
			l10.8,40.9c0.2,0.9-0.3,1.7-1.1,2c-0.9,0.2-1.8-0.3-2-1.1l-9.7-36.7l-7.9,17l2.3,5.7c0.2,0.4,0.2,0.8,0,1.2l-2.4,6
			c-0.1,0.3-0.4,0.6-0.7,0.8l-11.9,7.1C173.5,126.4,173.2,126.5,172.9,126.5z M162.7,116.6l10.2,6.3l10.5-6.3l2-4.9l-2.3-5.7v-0.1
			c-2.7-7-4.4-18.4-5.1-33.9c-3.3,0.4-6.5,0.4-9.8,0c-0.7,15.6-2.4,27.1-5.1,34l0,0l-2.3,5.7L162.7,116.6z M181.2,71.6
			c0.6,12.8,1.8,22.7,3.6,29.4l8.2-17.6l-0.4-15.6C188.9,69.6,185.1,70.8,181.2,71.6z M153.1,83.4l8.1,17.6
			c1.8-6.8,3.1-16.6,3.6-29.5c-5.1-0.9-9-2.6-11.3-3.6L153.1,83.4z M168.3,68.8c3.2,0.4,6.4,0.4,9.5,0c-0.4-11.2-0.2-21-0.1-25H173
			h-0.1h-4.6C168.5,47.8,168.7,57.6,168.3,68.8z M181,42.8c-0.1,2.4-0.4,13.2,0,25.5c3.7-0.7,7.4-2,11-3.8l-5.9-14.9v-0.1l0,0
			c0-0.1-0.1-0.2-0.1-0.4V49c0-0.1,0-0.1,0-0.2c0-0.1,0-0.2,0-0.2l4.4-16.5L181,42.8z M154.1,64.5c1.8,0.9,5.7,2.7,11,3.8
			c0.4-12.3,0.1-23.1,0-25.5L155.7,32l4.4,16.5c0,0.1,0,0.2,0,0.2c0,0.1,0,0.1,0,0.2V49c0,0.2,0,0.3-0.1,0.5L154.1,64.5z
			 M189.7,47.3h0.1l4.2-8.2l-0.8-5.3L189.7,47.3z M156.3,47.3h0.1l-3.6-13.5l-0.8,5.3L156.3,47.3z"/>
	</g>
</g>
<g>
	<polygon class="st0" points="263.7,110 270.6,110 267.2,101.2 	"/>
	<path class="st0" d="M234.4,102.2c-0.6-0.6-1.4-1.1-2.3-1.4c-0.9-0.3-1.9-0.5-3-0.5h-3.9v15.3h3.9c1.1,0,2.1-0.2,3-0.5
		s1.7-0.8,2.3-1.4c0.6-0.6,1.1-1.4,1.5-2.4c0.3-1,0.5-2.1,0.5-3.4c0-1.3-0.2-2.4-0.5-3.4C235.6,103.6,235.1,102.8,234.4,102.2z"/>
	<path class="st0" d="M316.2,90.4l-106.9-0.7c0,0,0,0,0,0c-0.6,0-1.2,0.3-1.6,0.8c-0.4,0.5-0.5,1.1-0.4,1.7l8.1,32.5
		c0.2,0.9,1,1.5,1.9,1.5h98.8c1.1,0,2-0.9,2-2V92.4C318.1,91.3,317.3,90.4,316.2,90.4z M238.5,112.3c-0.5,1.2-1.1,2.2-2,3
		c-0.9,0.8-1.9,1.4-3.1,1.8c-1.2,0.4-2.6,0.6-4,0.6H224c-0.4,0-0.7-0.1-1-0.3c-0.2-0.2-0.4-0.5-0.4-0.9V99.3c0-0.4,0.1-0.7,0.4-0.9
		c0.2-0.2,0.6-0.3,1-0.3h5.3c1.5,0,2.8,0.2,4,0.6c1.2,0.4,2.2,1,3.1,1.8c0.9,0.8,1.5,1.8,2,3.1c0.5,1.2,0.7,2.7,0.7,4.4
		C239.2,109.6,238.9,111.1,238.5,112.3z M254.9,106.6c0.4,0,0.6,0.1,0.8,0.3c0.2,0.2,0.2,0.4,0.2,0.8c0,0.4-0.1,0.6-0.2,0.8
		c-0.2,0.2-0.4,0.3-0.8,0.3h-9.5v6.8h10c0.4,0,0.6,0.1,0.8,0.3c0.2,0.2,0.2,0.4,0.2,0.8c0,0.4-0.1,0.6-0.2,0.8
		c-0.2,0.2-0.4,0.3-0.8,0.3h-11.2c-0.4,0-0.7-0.1-0.9-0.3c-0.2-0.2-0.4-0.5-0.4-0.9V99.3c0-0.4,0.1-0.7,0.4-0.9
		c0.2-0.2,0.6-0.3,0.9-0.3h11.2c0.4,0,0.6,0.1,0.8,0.3c0.2,0.2,0.2,0.4,0.2,0.8c0,0.4-0.1,0.6-0.2,0.8c-0.2,0.2-0.4,0.3-0.8,0.3h-10
		v6.4H254.9z M275.7,117.7c-0.3,0.2-0.6,0.3-1,0.3c-0.3,0-0.5-0.1-0.6-0.2c-0.2-0.1-0.3-0.3-0.4-0.5l-2.2-5.1h-8.7l-2.2,5.1
		c-0.2,0.5-0.5,0.7-0.9,0.7c-0.3,0-0.7-0.1-1-0.3c-0.3-0.2-0.5-0.4-0.5-0.8c0-0.1,0-0.1,0-0.2c0-0.1,0.1-0.2,0.1-0.4l7.5-17.7
		c0.1-0.2,0.3-0.4,0.5-0.6c0.2-0.1,0.5-0.2,0.9-0.2c0.4,0,0.8,0.1,1,0.2c0.2,0.1,0.3,0.3,0.4,0.6l7.4,17.6c0.1,0.2,0.1,0.3,0.1,0.4
		c0,0.1,0,0.2,0,0.2C276.2,117.2,276,117.5,275.7,117.7z M291.9,117.5c-0.2,0.2-0.4,0.3-0.8,0.3h-10.7c-0.4,0-0.7-0.1-0.9-0.3
		c-0.2-0.2-0.4-0.5-0.4-0.9V99.1c0-0.4,0.1-0.7,0.3-0.9c0.2-0.2,0.5-0.3,0.9-0.3c0.4,0,0.7,0.1,0.9,0.3c0.2,0.2,0.3,0.5,0.3,0.9
		v16.5h9.5c0.4,0,0.6,0.1,0.8,0.3c0.2,0.2,0.2,0.4,0.2,0.8C292.1,117,292,117.3,291.9,117.5z M307.9,115.1c-0.4,0.7-0.9,1.3-1.5,1.8
		c-0.6,0.5-1.3,0.8-2.1,1c-0.8,0.2-1.6,0.3-2.5,0.3c-1.4,0-2.8-0.2-4.1-0.6c-1.3-0.4-2.4-1.1-3.3-2c-0.2-0.3-0.4-0.5-0.4-0.7
		c0-0.2-0.1-0.3-0.1-0.5c0-0.3,0.1-0.6,0.4-0.8c0.3-0.2,0.6-0.4,0.9-0.4c0.2,0,0.3,0.1,0.5,0.2c0.1,0.1,0.3,0.2,0.4,0.3
		c0.9,0.9,1.8,1.6,2.7,1.9c0.9,0.3,1.9,0.5,3,0.5c1.2,0,2.2-0.3,3-0.8c0.8-0.6,1.2-1.4,1.2-2.5c0-0.9-0.3-1.7-0.9-2.2
		c-0.6-0.5-1.5-1-2.8-1.4l-2.5-0.7c-1.8-0.5-3.1-1.2-3.9-2c-0.9-0.8-1.3-2-1.3-3.5c0-0.9,0.2-1.8,0.6-2.4c0.4-0.7,0.9-1.2,1.6-1.7
		c0.7-0.4,1.4-0.8,2.2-1c0.8-0.2,1.6-0.3,2.3-0.3c1.3,0,2.5,0.2,3.7,0.7c1.1,0.4,2.1,1.2,2.9,2.2c0.2,0.2,0.3,0.4,0.3,0.5
		c0.1,0.2,0.1,0.3,0.1,0.5c0,0.3-0.1,0.6-0.4,0.8c-0.2,0.2-0.5,0.3-0.8,0.3c-0.2,0-0.4,0-0.5-0.1c-0.2-0.1-0.3-0.2-0.6-0.4
		c-0.7-0.8-1.4-1.4-2.2-1.7c-0.7-0.3-1.6-0.5-2.6-0.5c-0.5,0-1,0.1-1.5,0.2c-0.5,0.1-0.9,0.3-1.3,0.6c-0.4,0.3-0.7,0.6-0.9,1
		c-0.2,0.4-0.4,0.9-0.4,1.4c0,0.4,0.1,0.7,0.2,1c0.1,0.3,0.3,0.6,0.5,0.8c0.3,0.3,0.6,0.5,1.1,0.7c0.5,0.2,1,0.4,1.7,0.7l3.1,1
		c1.6,0.5,2.8,1.2,3.6,2c0.8,0.8,1.1,2,1.1,3.4C308.4,113.5,308.2,114.4,307.9,115.1z"/>
</g>
</svg>
